<?xml version="1.0" encoding="utf-8"?>
<!-- Generator: Adobe Illustrator 19.0.0, SVG Export Plug-In . SVG Version: 6.00 Build 0)  -->
<svg version="1.1" id="Layer_2" xmlns="http://www.w3.org/2000/svg" xmlns:xlink="http://www.w3.org/1999/xlink" x="0px" y="0px"
	 viewBox="0 0 685 643.9" style="enable-background:new 0 0 685 643.9;" xml:space="preserve">
<style type="text/css">
	.st0{fill:#FFFFFF;}
	.st1{fill:#2B6EA0;}
	.st2{fill:#3B78A6;}
	.st3{fill:#62AADA;}
	.st4{clip-path:url(#SVGID_2_);}
	.st5{fill:url(#SVGID_3_);}
	.st6{fill:#3377A2;}
	.st7{fill:#6BAAD7;}
	.st8{fill:#012947;}
	.st9{fill:url(#SVGID_4_);}
	.st10{fill:url(#SVGID_5_);}
	.st11{fill:#689FC5;}
	.st12{clip-path:url(#SVGID_7_);fill:#012947;}
	.st13{clip-path:url(#SVGID_9_);fill:#012947;}
	.st14{clip-path:url(#SVGID_11_);}
	.st15{clip-path:url(#SVGID_13_);}
	.st16{fill:url(#SVGID_14_);}
	.st17{fill:url(#SVGID_15_);}
	.st18{fill:url(#SVGID_16_);}
	.st19{clip-path:url(#SVGID_18_);fill:#012947;}
	.st20{clip-path:url(#SVGID_20_);fill:#012947;}
	.st21{clip-path:url(#SVGID_22_);}
	.st22{fill:url(#SVGID_23_);}
	.st23{fill:url(#SVGID_24_);}
	.st24{fill:url(#SVGID_25_);}
	.st25{clip-path:url(#SVGID_27_);fill:#012947;}
	.st26{clip-path:url(#SVGID_29_);fill:#012947;}
	.st27{clip-path:url(#SVGID_31_);}
	.st28{fill:#0C4773;}
	.st29{fill:#6AB2E2;}
	.st30{fill:#022B48;}
	.st31{fill:url(#SVGID_32_);}
	.st32{fill:url(#SVGID_33_);}
	.st33{fill:url(#SVGID_34_);}
	.st34{clip-path:url(#SVGID_36_);fill:#012947;}
	.st35{clip-path:url(#SVGID_38_);fill:#012947;}
	.st36{clip-path:url(#SVGID_40_);}
</style>
<g>
	
		<ellipse transform="matrix(0.9177 -0.3974 0.3974 0.9177 -65.8486 132.5528)" class="st0" cx="286.9" cy="225.2" rx="11.3" ry="17.1"/>
	
		<ellipse transform="matrix(-0.9177 -0.3974 0.3974 -0.9177 676.1301 590.4366)" class="st0" cx="399.2" cy="225.2" rx="11.3" ry="17.1"/>
	<g>
		<path class="st1" d="M630.7,383.7c-42.8-27.5-81.1-19-116.2-21.2c-49.1-3-90-26.3-103.7-48.1c15.7,18.4,42.5,24.6,59.9,27.6
			s22.9,7.8,59.7,7.8c60.6,0,133.1-60.7,133.1-150.3c0-59.7-40-101.1-82.5-101.1c-22.3,0-38.7,10.2-48.3,21.6
			c-5.4,6.5-8.7,13.4-9.6,19.1h2.9h5.9c3.7,0,7.3-1.1,10.3-3.3c5.9-4.3,16.5-10.7,30.1-10.7c28.7,0,51.6,25.7,51.6,58.1
			c0,83.3-109.5,132.7-153.5,132.7c-39.1,0-60.2-31.1-60.2-59.1c0-4-0.2-9.6,1.2-13.5c9.1-2.8,13.8-10.8,13.8-22.1
			c0-12.6-8.1-18.8-5.8-27.5c-26.3,3.8-34.9,24.2-34.9,36.8s6.4,15.3,12.5,19.2c-0.3,1.8-4.5,6.1-11.1,6.1c-8.4,0-13-7-13-16.7
			c0-25.2,18.1-58,43.8-58c4.6,0,7.6,0.7,10.3,2.7c-3.8-14,18.8-29.7,18.8-76.1C445.8,53.8,405.8,0,342.5,0S239.3,53.8,239.3,107.7
			c0,46.4,22.6,62.1,18.8,76.1c2.6-2,5.7-2.7,10.3-2.7c25.7,0,43.8,32.9,43.8,58c0,9.6-4.6,16.7-13,16.7c-6.6,0-10.8-4.3-11.1-6.1
			c6.1-4,12.5-6.7,12.5-19.2s-8.6-33-34.9-36.8c2.4,8.7-5.8,14.9-5.8,27.5c0,11.4,4.7,19.3,13.8,22.1c1.4,3.9,1.2,9.5,1.2,13.5
			c0,27.9-21.2,59.1-60.2,59.1c-43.9,0-153.5-49.4-153.5-132.7c0-32.4,22.9-58.1,51.6-58.1c13.5,0,24.2,6.4,30.1,10.7
			c3,2.2,6.6,3.3,10.3,3.3h5.9h2.9c-0.9-5.7-4.1-12.6-9.6-19.1c-9.6-11.4-26-21.6-48.3-21.6c-42.5,0-82.5,41.4-82.5,101.1
			c0,89.6,72.5,150.3,133.1,150.3c36.8,0,42.3-4.8,59.7-7.8s44.3-9.2,59.9-27.6c-13.7,21.8-54.5,45.1-103.7,48.1
			c-35.1,2.2-73.4-6.3-116.2,21.2C14.3,409.3,0,445.7,0,472.3c0,66,40.4,93.3,59.6,101.2c-5.5-7.3-15.1-23.4-15.1-44.3
			c0-15.8,4.7-23.6,8.6-28.6c-7.8-9.7-14.2-21-16.9-30.2c0-15.8,27.4-52.4,76.9-52.4c25.6,0,25.3,4.6,53.1,4.6
			c48.9,0,70.6-26.8,103.5-61.8c18.3-19.5,25.8-31.4,31-43.5c-8,23.3-22.6,66.2-60.6,92.2c-29.4,20.1-68.9,43.7-92.1,105.4
			c-5.4,12.3-8.6,24.5-8.6,36.1c0,35.9,27.3,93,96.3,93c52.8,0,96.9-37.6,106.8-88c9.8,50.5,54,88,106.8,88c69,0,96.3-57.1,96.3-93
			c0-11.5-3.2-23.7-8.6-36.1c-23.2-61.7-62.7-85.2-92.1-105.4c-38-26-52.6-68.8-60.6-92.2c5.2,12.1,12.7,24,31,43.5
			c32.9,35,54.6,61.8,103.5,61.8c27.9,0,27.5-4.6,53.1-4.6c49.5,0,76.9,36.6,76.9,52.4c-2.7,9.3-9.1,20.5-16.9,30.2
			c3.9,5.1,8.6,12.9,8.6,28.6c0,20.9-9.6,37-15.1,44.3c19.2-7.9,59.6-35.2,59.6-101.2C685,445.7,670.7,409.3,630.7,383.7z
			 M276.1,219.7c0-5.7,3.4-8.8,5.9-8.8s3.5,2.6,3.5,5.3v0.8c0,1.4-0.4,2.7-0.9,4c-0.1,0.3-0.3,0.7-0.3,1c0,4.7,4.2,7.8,9.1,7.9
			c1.6,0,2.9,1.3,3.1,2.9c0.2,1.8-1,3.4-2.8,3.6c-0.8,0.1-1.7,0.1-2.8,0.1C280.8,236.4,276.1,228,276.1,219.7z M436.1,466
			c23.5,8.6,63.7,35.5,63.7,74.8c0,40-28,60.8-55.1,60.8c-51.1,0-75.6-52.1-75.6-95.1c0-11.9,0-40.6,0-61.8c2.3,2.8,4.8,5.8,8.6,9.7
			c3.1,14.4,1.9,22.5,5.9,58.6c5,44.9,25.3,73.5,60.6,73.5c29.9,0,40.8-24.6,40.8-45c0-22.6-15-39.7-34.3-51.8
			c-16.1-10-32.3-13.8-49.2-24.2c-29.8-18.3-50.1-41.9-58.9-65.7c-8.8,23.8-29.1,47.3-58.9,65.7c-16.9,10.4-33.1,14.1-49.2,24.2
			c-19.3,12.1-34.3,29.2-34.3,51.8c0,20.4,10.9,45,40.8,45c35.3,0,55.6-28.6,60.6-73.5c4-36.1,2.8-44.3,5.9-58.6
			c3.8-3.9,6.3-6.9,8.6-9.7c0,21.2,0,49.9,0,61.8c0,43-24.4,95.1-75.6,95.1c-27.1,0-55.1-20.8-55.1-60.8c0-39.3,40.2-66.2,63.7-74.8
			c23.5-8.6,37.5-16.1,55.8-34.4c18.3-18.3,35-45.2,37.8-94.3c2.8,49.1,19.6,75.9,37.8,94.3C398.6,449.9,412.6,457.4,436.1,466z
			 M423.3,516.7c-11.4,0-20.2,6.5-23,15c-1.6-4.7-2.5-10.1-3-15.2c3.6-5.5,11.4-13.6,28-13.6c22.8,0,43.8,19.4,43.8,41.9
			c0,11.7-6.1,28.3-26.7,28.3c-15.4,0-32.4-8.7-32.4-26.5c0-6.9,5.5-14.9,13.4-14.9c2.5,0,3.9,1,3.9,1c1.1,3,1.2,8.1,6.5,8.1
			s8-4.9,8-9.5C441.8,524.6,434.6,516.7,423.3,516.7z M251.3,540.9c5.3,0,5.4-5.2,6.5-8.1c0,0,1.4-1,3.9-1c7.9,0,13.4,8,13.4,14.9
			c0,17.8-17,26.5-32.4,26.5c-20.6,0-26.7-16.7-26.7-28.3c0-22.5,21-41.9,43.8-41.9c16.6,0,24.4,8.1,28,13.6
			c-0.5,5.1-1.4,10.5-3,15.2c-2.9-8.5-11.7-15-23-15s-18.5,8-18.5,14.8C243.2,536,245.9,540.9,251.3,540.9z M394.2,236.4
			c-1.1,0-2.1-0.1-2.8-0.1c-1.8-0.2-3.1-1.9-2.8-3.6c0.2-1.6,1.5-2.8,3.1-2.9c4.9-0.1,9.1-3.2,9.1-7.9c0-0.3-0.1-0.6-0.3-1
			c-0.6-1.3-0.9-2.6-0.9-4v-0.8c0-2.6,1-5.3,3.5-5.3s5.9,3.1,5.9,8.8C408.9,228,404.2,236.4,394.2,236.4z"/>
		<g>
			<g>
				<polygon class="st2" points="369.1,459.4 380,472.1 386,472.1 379.8,451.8 365.5,440.2 				"/>
				<path class="st3" d="M464.1,526.2c7.9,34.9-18.1,46.3-41.4,41.9c-4.4,8.3,19.9,17.6,36.9,7.3c17.1-10.3,17.8-27.8,15.4-35.8
					C472.6,531.7,474.5,529.3,464.1,526.2z"/>
			</g>
			<path class="st1" d="M630.7,383.7c-42.8-27.5-81.1-19-116.2-21.2c-49.1-3-90-26.3-103.7-48.1c15.7,18.4,42.5,24.6,59.9,27.6
				s22.9,7.8,59.7,7.8c60.6,0,133.1-60.7,133.1-150.3c0-59.7-40-101.1-82.5-101.1c-22.3,0-38.7,10.2-48.3,21.6
				c-5.4,6.5-8.7,13.4-9.6,19.1h2.9h5.9c3.7,0,7.3-1.1,10.3-3.3c5.9-4.3,16.5-10.7,30.1-10.7c28.7,0,51.6,25.7,51.6,58.1
				c0,83.3-109.5,132.7-153.5,132.7c-39.1,0-60.2-31.1-60.2-59.1c0-4-0.2-9.6,1.2-13.5c9.1-2.8,13.8-10.8,13.8-22.1
				c0-12.6-8.1-18.8-5.8-27.5c-26.3,3.8-34.9,24.2-34.9,36.8s6.4,15.3,12.5,19.2c-0.3,1.8-4.5,6.1-11.1,6.1c-8.4,0-13-7-13-16.7
				c0-25.2,18.1-58,43.8-58c4.6,0,7.6,0.7,10.3,2.7c-3.8-14,18.8-29.7,18.8-76.1C445.8,53.8,405.8,0,342.5,0v337.3
				c2.8,49.1,19.6,75.9,37.8,94.3c18.3,18.3,32.3,25.8,55.8,34.4c23.5,8.6,63.7,35.5,63.7,74.8c0,40-28,60.8-55.1,60.8
				c-51.1,0-75.6-52.1-75.6-95.1c0-11.9,0-40.6,0-61.8c2.3,2.8,4.8,5.8,8.6,9.7c3.1,14.4,1.9,22.5,5.9,58.6
				c5,44.9,25.3,73.5,60.6,73.5c29.9,0,40.8-24.6,40.8-45c0-22.6-15-39.7-34.3-51.8c-16.1-10-32.3-13.8-49.2-24.2
				c-29.8-18.3-50.1-41.9-58.9-65.7v156.1c9.8,50.5,54,88,106.8,88c69,0,96.3-57.1,96.3-93c0-11.5-3.2-23.7-8.6-36.1
				c-23.2-61.7-62.7-85.2-92.1-105.4c-38-26-52.6-68.8-60.6-92.2c5.2,12.1,12.7,24,31,43.5c32.9,35,54.6,61.8,103.5,61.8
				c27.9,0,27.5-4.6,53.1-4.6c49.5,0,76.9,36.6,76.9,52.4c-2.7,9.3-9.1,20.5-16.9,30.2c3.9,5.1,8.6,12.9,8.6,28.6
				c0,20.9-9.6,37-15.1,44.3c19.2-7.9,59.6-35.2,59.6-101.2C685,445.7,670.7,409.3,630.7,383.7z M425.2,502.9
				c22.8,0,43.8,19.4,43.8,41.9c0,11.7-6.1,28.3-26.7,28.3c-15.4,0-32.4-8.7-32.4-26.5c0-6.9,5.5-14.9,13.4-14.9c2.5,0,3.9,1,3.9,1
				c1.1,3,1.2,8.1,6.5,8.1s8-4.9,8-9.5c0-6.8-7.2-14.8-18.5-14.8s-20.2,6.5-23,15c-1.6-4.7-2.5-10.1-3-15.2
				C400.8,511,408.6,502.9,425.2,502.9z M394.2,236.4c-1.1,0-2.1-0.1-2.8-0.1c-1.8-0.2-3.1-1.9-2.8-3.6c0.2-1.6,1.5-2.8,3.1-2.9
				c4.9-0.1,9.1-3.2,9.1-7.9c0-0.3-0.1-0.6-0.3-1c-0.6-1.3-0.9-2.6-0.9-4v-0.8c0-2.6,1-5.3,3.5-5.3s5.9,3.1,5.9,8.8
				C408.9,228,404.2,236.4,394.2,236.4z"/>
			<g>
				<defs>
					<path id="SVGID_1_" d="M630.7,383.7c-42.8-27.5-81.1-19-116.2-21.2c-49.1-3-90-26.3-103.7-48.1c15.7,18.4,42.5,24.6,59.9,27.6
						s22.9,7.8,59.7,7.8c60.6,0,133.1-60.7,133.1-150.3c0-59.7-40-101.1-82.5-101.1c-22.3,0-38.7,10.2-48.3,21.6
						c-5.4,6.5-8.7,13.4-9.6,19.1h2.9h5.9c3.7,0,7.3-1.1,10.3-3.3c5.9-4.3,16.5-10.7,30.1-10.7c28.7,0,51.6,25.7,51.6,58.1
						c0,83.3-109.5,132.7-153.5,132.7c-39.1,0-60.2-31.1-60.2-59.1c0-4-0.2-9.6,1.2-13.5c9.1-2.8,13.8-10.8,13.8-22.1
						c0-12.6-8.1-18.8-5.8-27.5c-26.3,3.8-34.9,24.2-34.9,36.8s6.4,15.3,12.5,19.2c-0.3,1.8-4.5,6.1-11.1,6.1c-8.4,0-13-7-13-16.7
						c0-25.2,18.1-58,43.8-58c4.6,0,7.6,0.7,10.3,2.7c-3.8-14,18.8-29.7,18.8-76.1C445.8,53.8,405.8,0,342.5,0v337.3
						c2.8,49.1,19.6,75.9,37.8,94.3c18.3,18.3,32.3,25.8,55.8,34.4c23.5,8.6,63.7,35.5,63.7,74.8c0,40-28,60.8-55.1,60.8
						c-51.1,0-75.6-52.1-75.6-95.1c0-11.9,0-40.6,0-61.8c2.3,2.8,4.8,5.8,8.6,9.7c3.1,14.4,1.9,22.5,5.9,58.6
						c5,44.9,25.3,73.5,60.6,73.5c29.9,0,40.8-24.6,40.8-45c0-22.6-15-39.7-34.3-51.8c-16.1-10-32.3-13.8-49.2-24.2
						c-29.8-18.3-50.1-41.9-58.9-65.7v156.1c9.8,50.5,54,88,106.8,88c69,0,96.3-57.1,96.3-93c0-11.5-3.2-23.7-8.6-36.1
						c-23.2-61.7-62.7-85.2-92.1-105.4c-38-26-52.6-68.8-60.6-92.2c5.2,12.1,12.7,24,31,43.5c32.9,35,54.6,61.8,103.5,61.8
						c27.9,0,27.5-4.6,53.1-4.6c49.5,0,76.9,36.6,76.9,52.4c-2.7,9.3-9.1,20.5-16.9,30.2c3.9,5.1,8.6,12.9,8.6,28.6
						c0,20.9-9.6,37-15.1,44.3c19.2-7.9,59.6-35.2,59.6-101.2C685,445.7,670.7,409.3,630.7,383.7z M425.2,502.9
						c22.8,0,43.8,19.4,43.8,41.9c0,11.7-6.1,28.3-26.7,28.3c-15.4,0-32.4-8.7-32.4-26.5c0-6.9,5.5-14.9,13.4-14.9
						c2.5,0,3.9,1,3.9,1c1.1,3,1.2,8.1,6.5,8.1s8-4.9,8-9.5c0-6.8-7.2-14.8-18.5-14.8s-20.2,6.5-23,15c-1.6-4.7-2.5-10.1-3-15.2
						C400.8,511,408.6,502.9,425.2,502.9z M394.2,236.4c-1.1,0-2.1-0.1-2.8-0.1c-1.8-0.2-3.1-1.9-2.8-3.6c0.2-1.6,1.5-2.8,3.1-2.9
						c4.9-0.1,9.1-3.2,9.1-7.9c0-0.3-0.1-0.6-0.3-1c-0.6-1.3-0.9-2.6-0.9-4v-0.8c0-2.6,1-5.3,3.5-5.3s5.9,3.1,5.9,8.8
						C408.9,228,404.2,236.4,394.2,236.4z"/>
				</defs>
				<clipPath id="SVGID_2_">
					<use xlink:href="#SVGID_1_"  style="overflow:visible;"/>
				</clipPath>
				<g class="st4">
					<linearGradient id="SVGID_3_" gradientUnits="userSpaceOnUse" x1="468.1461" y1="341.7254" x2="711.4794" y2="464.3921">
						<stop  offset="0" style="stop-color:#2C6F9F"/>
						<stop  offset="0.1344" style="stop-color:#2C6F9F"/>
						<stop  offset="0.263" style="stop-color:#286896"/>
						<stop  offset="0.468" style="stop-color:#1C567F"/>
						<stop  offset="0.7226" style="stop-color:#09375A"/>
						<stop  offset="0.8226" style="stop-color:#002A49"/>
						<stop  offset="1" style="stop-color:#002A49"/>
					</linearGradient>
					<path class="st5" d="M464.2,355.2c77.3,15,125.2,10.7,160.9,16s69.8,0.7,81.1,62c11.3,61.3-27.7,67.3-27.7,67.3
						s-8.2-46.3-47.3-63.7c-39.1-17.3-47.8-18.7-87.4-16.7s-78.1-10.4-97.9-27.7C448.2,376.8,464.2,355.2,464.2,355.2z"/>
					<g>
						<g>
							<path class="st6" d="M637.1,478.9l13-30.9l14.3,33.8c0,0,9,33,0,39.7S631.3,540,631.3,540l1.4-37.3L637.1,478.9z"/>
							<path class="st7" d="M647.8,473.2c1.9,14.8-0.8,27.8-9.6,39.2c-8.2,2.1-14-5.5-15.2-17.3S640.4,471.6,647.8,473.2z"/>
							<path class="st8" d="M644.7,480.5c-1.1,11.6-3.8,19.5-7.3,29.8c-5.8,2.2-12.4-12.2-12.4-12.2l16.2-18.6L644.7,480.5z"/>
							<linearGradient id="SVGID_4_" gradientUnits="userSpaceOnUse" x1="410.8335" y1="362.9321" x2="662.017" y2="362.9321">
								<stop  offset="0" style="stop-color:#6FB4E8"/>
								<stop  offset="1" style="stop-color:#61A2D0"/>
							</linearGradient>
							<path class="st9" d="M410.8,314.4c18.9,34.3,56.8,67.6,108.7,67.6c30.8,0,25.9-4,65.9-4c30.1,0,65.4,17.9,76.6,33.4
								c0.9-37.9-36.5-55.6-92.2-53c-55.7,2.7-76.2,1.7-105.8-11.5c-29.7-13.2-40.5-20.3-45.5-24.5S410.8,314.4,410.8,314.4z"/>
						</g>
					</g>
					<g>
						<path class="st8" d="M646.5,191c0,104.9-109.4,158.5-175.8,151c10.8,8.7,46.6,21.7,86.4,12.2s118.7-48.7,122.4-99.7
							s-9.1-111.3-9.1-111.3L642,131.4c6.8,13.7,17,36.9,10.6,60.6c-0.2-13.9-3.2-39.9-23.3-59.8C636.7,142.7,646.5,163.6,646.5,191
							z"/>
						<path class="st8" d="M342.5,324c9.2,52.5,36.8,83.3,62.3,103.4c43.1,33.9,104.6,55.6,94.8,118.4
							c-4.7-20.6-19.1-51.8-58.9-71.8s-66.2-30.5-85.2-64.1c-5.9-11.6-10.8-33.1-12.4-40.6c-0.4-1.8-0.6-3.6-0.6-5.4V324z"/>
						<path class="st8" d="M372.2,454.1l-3.1-9.5c0,0,0,45.8,0,61.8c0,69.7,16.7,86.1,32.1,97.7c12.8,9.7,26.6,16.4,46.4,16.4
							c53.9,0,80.6-46.4,80.6-89c0-22-10.3-40.5-20.6-57.9c0,0,17.3,12.6,28.3,29.3c11.3,16.7,13.6,35.1,13.6,35.1
							s1.2,28.1-6.1,49.9s-17.4,57.9-17.4,57.9H393.5l-51-58V399.8v-9.6c0,0,11,33.3,33,50.5s60,37.8,79,46.3s35,31.4,35,61.1
							s-21.8,45.4-45.3,45.4s-64.8-25.3-67.5-66S372.2,454.1,372.2,454.1z"/>
						<linearGradient id="SVGID_5_" gradientUnits="userSpaceOnUse" x1="380.6744" y1="320.8751" x2="544.3411" y2="538.5417">
							<stop  offset="0" style="stop-color:#6FB4E8"/>
							<stop  offset="1" style="stop-color:#61A2D0"/>
						</linearGradient>
						<path class="st10" d="M549.3,538c-3.7-15-8.7-27.5-13.6-25.8c2.9,9.6,1.5,22.4-1.3,30.9c1.3-54.7-47.5-95.7-88.2-118.2
							c-36.9-20.4-63.2-47.7-63.2-94.2c0-6.5,1.1-13.5,1.1-13.5c1.8,4.6,2.8,8.7,7.8,17c5,8.3,26.3,47.7,57.3,70.5
							c31,22.8,54,34.3,69.5,61C534.3,492.5,552.3,515.2,549.3,538z"/>
						<path class="st8" d="M693.5,462.9H685c-24.1-49.3-75.8-62.8-102.6-62.8c-26.8,0-41.8,4.2-63.8,4.2c-57.8,0-88-32.5-105.5-45.8
							l2,6.6c0,0,28.3,40.9,69,57.4s64.4,6.4,75.7,4.3c11.3-2.2,34.3-2.7,49.5,7.5c15.2,10.2,32.7,22.9,39.4,36.2
							c6.3,12.5,8.7,39.8-8.3,61.1c-10.9,20.7-24.5,56.5-24.5,56.5l43-11C659,576.9,693.5,525.4,693.5,462.9z"/>
						<g>
							<path class="st11" d="M397,249.7c2.7,1.3,8,3.3,8,3.3l-1.6-18l-10.5-6.2l-6-0.3l1.3,12.6l2.5,5.6l4.7,3.2L397,249.7z"/>
							<path class="st8" d="M394.6,248.2c-5-7.1-6.2-12.3-4.6-17.9c3.8,2.1,3,5.1,3,5.1c1.6,0.7,4.6,2.3,5.3,5.8
								c-0.1,6.1-2.7,18.6,8.6,39.7c-2.8-10.8,0.2-20.7,4.9-27.7c6.7-6.2,35.1-43.8,21-54.8s-10.6-17.1-27.1-8s-26.8,23.4-25.3,41.9
								S391.8,251.1,394.6,248.2z"/>
						</g>
					</g>
				</g>
			</g>
			<g>
				<path class="st8" d="M527.4,102.2c0-23.2,17.1-38.1,35.5-38.1s27.7,13.7,27.7,19.8c8.4,0,13.7,2.2,17.6,4.7
					c-0.1-14.2-14.6-49-52.9-49c-36.5,0-57.3,27.9-57.3,60.4s17.2,39.2,25.1,39.2c0.9-5.7,4.1-12.6,9.6-19.1
					C530,115.8,527.4,109.9,527.4,102.2z"/>
				<path class="st8" d="M454.3,162.1c0,25.3,18.1,34,29.1,34c12.1,0,17.5-7.5,18.7-15.7c0.4-2.4-2.4-4-4.3-2.5
					c-2.5,2-5.5,3.1-8.8,3.1c-6.1,0-15.6-4.3-15.6-18.3c0-16.8,17.8-24.3,24.1-24.7c-6.2-8-9.5-17.4-10.1-23.6
					C470.7,120.3,454.3,138.6,454.3,162.1z"/>
				<path class="st8" d="M585.7,527.4c-11.9,2.3-22.7,0.6-31.1-5.9c3.3,5.8,5.2,12.6,5.2,27.2c0,2.3-0.1,4.5-0.2,6.6
					C576,551,584.1,544.8,585.7,527.4z"/>
				<path class="st8" d="M578,431.8c22.8,0,41.3,19.9,39.6,42.6c-2.5-1.3-10.2-2.4-20.1-1.1c0.4-8-7-16.5-17.3-16.5
					c-8.1,0-18.6,6.5-18.6,20.3c0,11.1,6.7,22,17.8,21.9c2.7,6.4,5,12,5.9,16c-1.4,0.6-3.5,1.1-6.6,1.1c-21.3,0-43-16.8-43-42.9
					C535.8,447.2,555.5,431.8,578,431.8z"/>
			</g>
			<g>
				<g>
					<path class="st1" d="M545.2,149.7c-2.9,1.2-7.4,3.8-18.4,3.8c-8.8,0-16.1-3.2-21.9-7.9c4.2,7.7,7.5,17.5,7.5,27.7
						c0,51.8-40.5,88.5-88.3,91.3c4.3,23.4,23.2,37.8,45.6,37.8c34.6,0,82-46.8,82-112.4C551.8,171.8,548.7,161.2,545.2,149.7z"/>
					<g>
						<defs>
							<path id="SVGID_6_" d="M545.2,149.7c-2.9,1.2-7.4,3.8-18.4,3.8c-8.8,0-16.1-3.2-21.9-7.9c4.2,7.7,7.5,17.5,7.5,27.7
								c0,51.8-40.5,88.5-88.3,91.3c4.3,23.4,23.2,37.8,45.6,37.8c34.6,0,82-46.8,82-112.4C551.8,171.8,548.7,161.2,545.2,149.7z"/>
						</defs>
						<clipPath id="SVGID_7_">
							<use xlink:href="#SVGID_6_"  style="overflow:visible;"/>
						</clipPath>
						<path class="st12" d="M533.4,186.4c0,62.6-50.5,102.4-94.7,104.6c1.7,8.8,14.3,23.4,52.6,11.4S563,249.5,563,196.1
							s-18.3-53.6-18.3-53.6l-19.9,7.4C528,156.5,533.4,171,533.4,186.4z"/>
					</g>
				</g>
				<g>
					<path class="st1" d="M602.8,488.9c-4.4,0-8.5,2.9-12.3,6.3c3.9,8.3,7.1,15.5,7.1,24.7c0,24.9-13.7,45.3-39.7,48.6
						c-3.3,17.2-10.3,30.4-16,38.6c17.9-1.6,85.2-16.5,85.2-80.4C627,502.3,609.7,488.9,602.8,488.9z"/>
					<g>
						<defs>
							<path id="SVGID_8_" d="M602.8,488.9c-4.4,0-8.5,2.9-12.3,6.3c3.9,8.3,7.1,15.5,7.1,24.7c0,24.9-13.7,45.3-39.7,48.6
								c-3.3,17.2-10.3,30.4-16,38.6c17.9-1.6,85.2-16.5,85.2-80.4C627,502.3,609.7,488.9,602.8,488.9z"/>
						</defs>
						<clipPath id="SVGID_9_">
							<use xlink:href="#SVGID_8_"  style="overflow:visible;"/>
						</clipPath>
						<path class="st13" d="M616.8,517.7c0,39.1-35.2,63.4-62.4,64.3c-17.8,6.2-22.4,24.4-16.1,32.7s34.5,15.4,34.5,15.4
							s31.1-26.4,41.4-46.3s17.1-38.5,14.9-54.4s-3.4-22.4-10.1-35.4s-16-10.3-16-5.1C610,493.5,616.8,500.7,616.8,517.7z"/>
					</g>
				</g>
			</g>
		</g>
		<g>
			<g>
				<polygon class="st2" points="315.9,459.4 305,472.1 299,472.1 305.2,451.8 319.5,440.2 				"/>
				<path class="st3" d="M220.9,526.2c-7.9,34.9,18.1,46.3,41.4,41.9c4.4,8.3-19.9,17.6-36.9,7.3c-17.1-10.3-17.8-27.8-15.4-35.8
					C212.4,531.7,210.5,529.3,220.9,526.2z"/>
			</g>
			<path class="st1" d="M0,472.3c0,66,40.4,93.3,59.6,101.2c-5.5-7.3-15.1-23.4-15.1-44.3c0-15.8,4.7-23.6,8.6-28.6
				c-7.8-9.7-14.2-21-16.9-30.2c0-15.8,27.4-52.4,76.9-52.4c25.6,0,25.3,4.6,53.1,4.6c48.9,0,70.6-26.8,103.5-61.8
				c18.3-19.5,25.8-31.4,31-43.5c-8,23.3-22.6,66.2-60.6,92.2c-29.4,20.1-68.9,43.7-92.1,105.4c-5.4,12.3-8.6,24.5-8.6,36.1
				c0,35.9,27.3,93,96.3,93c52.8,0,96.9-37.6,106.8-88V399.8c-8.8,23.8-29.1,47.3-58.9,65.7c-16.9,10.4-33.1,14.1-49.2,24.2
				c-19.3,12.1-34.3,29.2-34.3,51.8c0,20.4,10.9,45,40.8,45c35.3,0,55.6-28.6,60.6-73.5c4-36.1,2.8-44.3,5.9-58.6
				c3.8-3.9,6.3-6.9,8.6-9.7c0,21.2,0,49.9,0,61.8c0,43-24.4,95.1-75.6,95.1c-27.1,0-55.1-20.8-55.1-60.8
				c0-39.3,40.2-66.2,63.7-74.8c23.5-8.6,37.5-16.1,55.8-34.4c18.3-18.3,35-45.2,37.8-94.3V0c-63.3,0-103.3,53.8-103.3,107.7
				c0,46.4,22.6,62.1,18.8,76.1c2.6-2,5.7-2.7,10.3-2.7c25.7,0,43.8,32.9,43.8,58c0,9.6-4.6,16.7-13,16.7c-6.6,0-10.8-4.3-11.1-6.1
				c6.1-4,12.5-6.7,12.5-19.2s-8.6-33-34.9-36.8c2.4,8.7-5.8,14.9-5.8,27.5c0,11.4,4.7,19.3,13.8,22.1c1.4,3.9,1.2,9.5,1.2,13.5
				c0,27.9-21.2,59.1-60.2,59.1c-43.9,0-153.5-49.4-153.5-132.7c0-32.4,22.9-58.1,51.6-58.1c13.5,0,24.2,6.4,30.1,10.7
				c3,2.2,6.6,3.3,10.3,3.3h5.9h2.9c-0.9-5.7-4.1-12.6-9.6-19.1c-9.6-11.4-26-21.6-48.3-21.6c-42.5,0-82.5,41.4-82.5,101.1
				c0,89.6,72.5,150.3,133.1,150.3c36.8,0,42.3-4.8,59.7-7.8s44.3-9.2,59.9-27.6c-13.7,21.8-54.5,45.1-103.7,48.1
				c-35.1,2.2-73.4-6.3-116.2,21.2C14.3,409.3,0,445.7,0,472.3z M287.8,516.5c-0.5,5.1-1.4,10.5-3,15.2c-2.9-8.5-11.7-15-23-15
				s-18.5,8-18.5,14.8c0,4.6,2.7,9.5,8,9.5s5.4-5.2,6.5-8.1c0,0,1.4-1,3.9-1c7.9,0,13.4,8,13.4,14.9c0,17.8-17,26.5-32.4,26.5
				c-20.6,0-26.7-16.7-26.7-28.3c0-22.5,21-41.9,43.8-41.9C276.4,502.9,284.2,511,287.8,516.5z M276.1,219.7c0-5.7,3.4-8.8,5.9-8.8
				s3.5,2.6,3.5,5.3v0.8c0,1.4-0.4,2.7-0.9,4c-0.1,0.3-0.3,0.7-0.3,1c0,4.7,4.2,7.8,9.1,7.9c1.6,0,2.9,1.3,3.1,2.9
				c0.2,1.8-1,3.4-2.8,3.6c-0.8,0.1-1.7,0.1-2.8,0.1C280.8,236.4,276.1,228,276.1,219.7z"/>
			<g>
				<defs>
					<path id="SVGID_10_" d="M0,472.3c0,66,40.4,93.3,59.6,101.2c-5.5-7.3-15.1-23.4-15.1-44.3c0-15.8,4.7-23.6,8.6-28.6
						c-7.8-9.7-14.2-21-16.9-30.2c0-15.8,27.4-52.4,76.9-52.4c25.6,0,25.3,4.6,53.1,4.6c48.9,0,70.6-26.8,103.5-61.8
						c18.3-19.5,25.8-31.4,31-43.5c-8,23.3-22.6,66.2-60.6,92.2c-29.4,20.1-68.9,43.7-92.1,105.4c-5.4,12.3-8.6,24.5-8.6,36.1
						c0,35.9,27.3,93,96.3,93c52.8,0,96.9-37.6,106.8-88V399.8c-8.8,23.8-29.1,47.3-58.9,65.7c-16.9,10.4-33.1,14.1-49.2,24.2
						c-19.3,12.1-34.3,29.2-34.3,51.8c0,20.4,10.9,45,40.8,45c35.3,0,55.6-28.6,60.6-73.5c4-36.1,2.8-44.3,5.9-58.6
						c3.8-3.9,6.3-6.9,8.6-9.7c0,21.2,0,49.9,0,61.8c0,43-24.4,95.1-75.6,95.1c-27.1,0-55.1-20.8-55.1-60.8
						c0-39.3,40.2-66.2,63.7-74.8c23.5-8.6,37.5-16.1,55.8-34.4c18.3-18.3,35-45.2,37.8-94.3V0c-63.3,0-103.3,53.8-103.3,107.7
						c0,46.4,22.6,62.1,18.8,76.1c2.6-2,5.7-2.7,10.3-2.7c25.7,0,43.8,32.9,43.8,58c0,9.6-4.6,16.7-13,16.7
						c-6.6,0-10.8-4.3-11.1-6.1c6.1-4,12.5-6.7,12.5-19.2s-8.6-33-34.9-36.8c2.4,8.7-5.8,14.9-5.8,27.5c0,11.4,4.7,19.3,13.8,22.1
						c1.4,3.9,1.2,9.5,1.2,13.5c0,27.9-21.2,59.1-60.2,59.1c-43.9,0-153.5-49.4-153.5-132.7c0-32.4,22.9-58.1,51.6-58.1
						c13.5,0,24.2,6.4,30.1,10.7c3,2.2,6.6,3.3,10.3,3.3h5.9h2.9c-0.9-5.7-4.1-12.6-9.6-19.1c-9.6-11.4-26-21.6-48.3-21.6
						c-42.5,0-82.5,41.4-82.5,101.1c0,89.6,72.5,150.3,133.1,150.3c36.8,0,42.3-4.8,59.7-7.8s44.3-9.2,59.9-27.6
						c-13.7,21.8-54.5,45.1-103.7,48.1c-35.1,2.2-73.4-6.3-116.2,21.2C14.3,409.3,0,445.7,0,472.3z M287.8,516.5
						c-0.5,5.1-1.4,10.5-3,15.2c-2.9-8.5-11.7-15-23-15s-18.5,8-18.5,14.8c0,4.6,2.7,9.5,8,9.5s5.4-5.2,6.5-8.1c0,0,1.4-1,3.9-1
						c7.9,0,13.4,8,13.4,14.9c0,17.8-17,26.5-32.4,26.5c-20.6,0-26.7-16.7-26.7-28.3c0-22.5,21-41.9,43.8-41.9
						C276.4,502.9,284.2,511,287.8,516.5z M276.1,219.7c0-5.7,3.4-8.8,5.9-8.8s3.5,2.6,3.5,5.3v0.8c0,1.4-0.4,2.7-0.9,4
						c-0.1,0.3-0.3,0.7-0.3,1c0,4.7,4.2,7.8,9.1,7.9c1.6,0,2.9,1.3,3.1,2.9c0.2,1.8-1,3.4-2.8,3.6c-0.8,0.1-1.7,0.1-2.8,0.1
						C280.8,236.4,276.1,228,276.1,219.7z"/>
				</defs>
				<clipPath id="SVGID_11_">
					<use xlink:href="#SVGID_10_"  style="overflow:visible;"/>
				</clipPath>
				<g class="st14">
					<g>
						<path class="st1" d="M1488.8,383.7c-42.8-27.5-81.1-19-116.2-21.2c-49.1-3-90-26.3-103.7-48.1c15.7,18.4,42.5,24.6,59.9,27.6
							s22.9,7.8,59.7,7.8c60.6,0,133.1-60.7,133.1-150.3c0-59.7-40-101.1-82.5-101.1c-22.3,0-38.7,10.2-48.3,21.6
							c-5.4,6.5-8.7,13.4-9.6,19.1h2.9h5.9c3.7,0,7.3-1.1,10.3-3.3c5.9-4.3,16.5-10.7,30.1-10.7c28.7,0,51.6,25.7,51.6,58.1
							c0,83.3-109.5,132.7-153.5,132.7c-39.1,0-60.2-31.1-60.2-59.1c0-4-0.2-9.6,1.2-13.5c9.1-2.8,13.8-10.8,13.8-22.1
							c0-12.6-8.1-18.8-5.8-27.5c-26.3,3.8-34.9,24.2-34.9,36.8s6.4,15.3,12.5,19.2c-0.3,1.8-4.5,6.1-11.1,6.1c-8.4,0-13-7-13-16.7
							c0-25.2,18.1-58,43.8-58c4.6,0,7.6,0.7,10.3,2.7c-3.8-14,18.8-29.7,18.8-76.1c0-53.9-40-107.7-103.3-107.7
							s-103.3,53.8-103.3,107.7c0,46.4,22.6,62.1,18.8,76.1c2.6-2,5.7-2.7,10.3-2.7c25.7,0,43.8,32.9,43.8,58
							c0,9.6-4.6,16.7-13,16.7c-6.6,0-10.8-4.3-11.1-6.1c6.1-4,12.5-6.7,12.5-19.2s-8.6-33-34.9-36.8c2.4,8.7-5.8,14.9-5.8,27.5
							c0,11.4,4.7,19.3,13.8,22.1c1.4,3.9,1.2,9.5,1.2,13.5c0,27.9-21.2,59.1-60.2,59.1c-43.9,0-153.5-49.4-153.5-132.7
							c0-32.4,22.9-58.1,51.6-58.1c13.5,0,24.2,6.4,30.1,10.7c3,2.2,6.6,3.3,10.3,3.3h5.9h2.9c-0.9-5.7-4.1-12.6-9.6-19.1
							c-9.6-11.4-26-21.6-48.3-21.6c-42.5,0-82.5,41.4-82.5,101.1c0,89.6,72.5,150.3,133.1,150.3c36.8,0,42.3-4.8,59.7-7.8
							s44.3-9.2,59.9-27.6c-13.7,21.8-54.5,45.1-103.7,48.1c-35.1,2.2-73.4-6.3-116.2,21.2c-39.9,25.7-54.3,62-54.3,88.7
							c0,66,40.4,93.3,59.6,101.2c-5.5-7.3-15.1-23.4-15.1-44.3c0-15.8,4.7-23.6,8.6-28.6c-7.8-9.7-14.2-21-16.9-30.2
							c0-15.8,27.4-52.4,76.9-52.4c25.6,0,25.3,4.6,53.1,4.6c48.9,0,70.6-26.8,103.5-61.8c18.3-19.5,25.8-31.4,31-43.5
							c-8,23.3-22.6,66.2-60.6,92.2c-29.4,20.1-68.9,43.7-92.1,105.4c-5.4,12.3-8.6,24.5-8.6,36.1c0,35.9,27.3,93,96.3,93
							c52.8,0,96.9-37.6,106.8-88c9.8,50.5,54,88,106.8,88c69,0,96.3-57.1,96.3-93c0-11.5-3.2-23.7-8.6-36.1
							c-23.2-61.7-62.7-85.2-92.1-105.4c-38-26-52.6-68.8-60.6-92.2c5.2,12.1,12.7,24,31,43.5c32.9,35,54.6,61.8,103.5,61.8
							c27.9,0,27.5-4.6,53.1-4.6c49.5,0,76.9,36.6,76.9,52.4c-2.7,9.3-9.1,20.5-16.9,30.2c3.9,5.1,8.6,12.9,8.6,28.6
							c0,20.9-9.6,37-15.1,44.3c19.2-7.9,59.6-35.2,59.6-101.2C1543.1,445.7,1528.7,409.3,1488.8,383.7z M1134.1,219.7
							c0-5.7,3.4-8.8,5.9-8.8s3.5,2.6,3.5,5.3v0.8c0,1.4-0.4,2.7-0.9,4c-0.1,0.3-0.3,0.7-0.3,1c0,4.7,4.2,7.8,9.1,7.9
							c1.6,0,2.9,1.3,3.1,2.9c0.2,1.8-1,3.4-2.8,3.6c-0.8,0.1-1.7,0.1-2.8,0.1C1138.9,236.4,1134.1,228,1134.1,219.7z M1294.1,466
							c23.5,8.6,63.7,35.5,63.7,74.8c0,40-28,60.8-55.1,60.8c-51.1,0-75.6-52.1-75.6-95.1c0-11.9,0-40.6,0-61.8
							c2.3,2.8,4.8,5.8,8.6,9.7c3.1,14.4,1.9,22.5,5.9,58.6c5,44.9,25.3,73.5,60.6,73.5c29.9,0,40.8-24.6,40.8-45
							c0-22.6-15-39.7-34.3-51.8c-16.1-10-32.3-13.8-49.2-24.2c-29.8-18.3-50.1-41.9-58.9-65.7c-8.8,23.8-29.1,47.3-58.9,65.7
							c-16.9,10.4-33.1,14.1-49.2,24.2c-19.3,12.1-34.3,29.2-34.3,51.8c0,20.4,10.9,45,40.8,45c35.3,0,55.6-28.6,60.6-73.5
							c4-36.1,2.8-44.3,5.9-58.6c3.8-3.9,6.3-6.9,8.6-9.7c0,21.2,0,49.9,0,61.8c0,43-24.4,95.1-75.6,95.1
							c-27.1,0-55.1-20.8-55.1-60.8c0-39.3,40.2-66.2,63.7-74.8c23.5-8.6,37.5-16.1,55.8-34.4c18.3-18.3,35-45.2,37.8-94.3
							c2.8,49.1,19.6,75.9,37.8,94.3C1256.6,449.9,1270.6,457.4,1294.1,466z M1281.3,516.7c-11.4,0-20.2,6.5-23,15
							c-1.6-4.7-2.5-10.1-3-15.2c3.6-5.5,11.4-13.6,28-13.6c22.8,0,43.8,19.4,43.8,41.9c0,11.7-6.1,28.3-26.7,28.3
							c-15.4,0-32.4-8.7-32.4-26.5c0-6.9,5.5-14.9,13.4-14.9c2.5,0,3.9,1,3.9,1c1.1,3,1.2,8.1,6.5,8.1s8-4.9,8-9.5
							C1299.9,524.6,1292.7,516.7,1281.3,516.7z M1109.3,540.9c5.3,0,5.4-5.2,6.5-8.1c0,0,1.4-1,3.9-1c7.9,0,13.4,8,13.4,14.9
							c0,17.8-17,26.5-32.4,26.5c-20.6,0-26.7-16.7-26.7-28.3c0-22.5,21-41.9,43.8-41.9c16.6,0,24.4,8.1,28,13.6
							c-0.5,5.1-1.4,10.5-3,15.2c-2.9-8.5-11.7-15-23-15s-18.5,8-18.5,14.8C1101.3,536,1104,540.9,1109.3,540.9z M1252.2,236.4
							c-1.1,0-2.1-0.1-2.8-0.1c-1.8-0.2-3.1-1.9-2.8-3.6c0.2-1.6,1.5-2.8,3.1-2.9c4.9-0.1,9.1-3.2,9.1-7.9c0-0.3-0.1-0.6-0.3-1
							c-0.6-1.3-0.9-2.6-0.9-4v-0.8c0-2.6,1-5.3,3.5-5.3s5.9,3.1,5.9,8.8C1267,228,1262.2,236.4,1252.2,236.4z"/>
						<g>
							<g>
								<polygon class="st2" points="1227.1,459.4 1238.1,472.1 1244.1,472.1 1237.9,451.8 1223.6,440.2 								"/>
								<path class="st3" d="M1322.1,526.2c7.9,34.9-18.1,46.3-41.4,41.9c-4.4,8.3,19.9,17.6,36.9,7.3
									c17.1-10.3,17.8-27.8,15.4-35.8C1330.6,531.7,1332.6,529.3,1322.1,526.2z"/>
							</g>
							<path class="st1" d="M1488.8,383.7c-42.8-27.5-81.1-19-116.2-21.2c-49.1-3-90-26.3-103.7-48.1c15.7,18.4,42.5,24.6,59.9,27.6
								s22.9,7.8,59.7,7.8c60.6,0,133.1-60.7,133.1-150.3c0-59.7-40-101.1-82.5-101.1c-22.3,0-38.7,10.2-48.3,21.6
								c-5.4,6.5-8.7,13.4-9.6,19.1h2.9h5.9c3.7,0,7.3-1.1,10.3-3.3c5.9-4.3,16.5-10.7,30.1-10.7c28.7,0,51.6,25.7,51.6,58.1
								c0,83.3-109.5,132.7-153.5,132.7c-39.1,0-60.2-31.1-60.2-59.1c0-4-0.2-9.6,1.2-13.5c9.1-2.8,13.8-10.8,13.8-22.1
								c0-12.6-8.1-18.8-5.8-27.5c-26.3,3.8-34.9,24.2-34.9,36.8s6.4,15.3,12.5,19.2c-0.3,1.8-4.5,6.1-11.1,6.1c-8.4,0-13-7-13-16.7
								c0-25.2,18.1-58,43.8-58c4.6,0,7.6,0.7,10.3,2.7c-3.8-14,18.8-29.7,18.8-76.1c0-53.9-40-107.7-103.3-107.7v337.3
								c2.8,49.1,19.6,75.9,37.8,94.3c18.3,18.3,32.3,25.8,55.8,34.4c23.5,8.6,63.7,35.5,63.7,74.8c0,40-28,60.8-55.1,60.8
								c-51.1,0-75.6-52.1-75.6-95.1c0-11.9,0-40.6,0-61.8c2.3,2.8,4.8,5.8,8.6,9.7c3.1,14.4,1.9,22.5,5.9,58.6
								c5,44.9,25.3,73.5,60.6,73.5c29.9,0,40.8-24.6,40.8-45c0-22.6-15-39.7-34.3-51.8c-16.1-10-32.3-13.8-49.2-24.2
								c-29.8-18.3-50.1-41.9-58.9-65.7v156.1c9.8,50.5,54,88,106.8,88c69,0,96.3-57.1,96.3-93c0-11.5-3.2-23.7-8.6-36.1
								c-23.2-61.7-62.7-85.2-92.1-105.4c-38-26-52.6-68.8-60.6-92.2c5.2,12.1,12.7,24,31,43.5c32.9,35,54.6,61.8,103.5,61.8
								c27.9,0,27.5-4.6,53.1-4.6c49.5,0,76.9,36.6,76.9,52.4c-2.7,9.3-9.1,20.5-16.9,30.2c3.9,5.1,8.6,12.9,8.6,28.6
								c0,20.9-9.6,37-15.1,44.3c19.2-7.9,59.6-35.2,59.6-101.2C1543.1,445.7,1528.7,409.3,1488.8,383.7z M1283.2,502.9
								c22.8,0,43.8,19.4,43.8,41.9c0,11.7-6.1,28.3-26.7,28.3c-15.4,0-32.4-8.7-32.4-26.5c0-6.9,5.5-14.9,13.4-14.9
								c2.5,0,3.9,1,3.9,1c1.1,3,1.2,8.1,6.5,8.1s8-4.9,8-9.5c0-6.8-7.2-14.8-18.5-14.8s-20.2,6.5-23,15c-1.6-4.7-2.5-10.1-3-15.2
								C1258.9,511,1266.6,502.9,1283.2,502.9z M1252.2,236.4c-1.1,0-2.1-0.1-2.8-0.1c-1.8-0.2-3.1-1.9-2.8-3.6
								c0.2-1.6,1.5-2.8,3.1-2.9c4.9-0.1,9.1-3.2,9.1-7.9c0-0.3-0.1-0.6-0.3-1c-0.6-1.3-0.9-2.6-0.9-4v-0.8c0-2.6,1-5.3,3.5-5.3
								s5.9,3.1,5.9,8.8C1267,228,1262.2,236.4,1252.2,236.4z"/>
							<g>
								<defs>
									<path id="SVGID_12_" d="M1488.8,383.7c-42.8-27.5-81.1-19-116.2-21.2c-49.1-3-90-26.3-103.7-48.1
										c15.7,18.4,42.5,24.6,59.9,27.6s22.9,7.8,59.7,7.8c60.6,0,133.1-60.7,133.1-150.3c0-59.7-40-101.1-82.5-101.1
										c-22.3,0-38.7,10.2-48.3,21.6c-5.4,6.5-8.7,13.4-9.6,19.1h2.9h5.9c3.7,0,7.3-1.1,10.3-3.3c5.9-4.3,16.5-10.7,30.1-10.7
										c28.7,0,51.6,25.7,51.6,58.1c0,83.3-109.5,132.7-153.5,132.7c-39.1,0-60.2-31.1-60.2-59.1c0-4-0.2-9.6,1.2-13.5
										c9.1-2.8,13.8-10.8,13.8-22.1c0-12.6-8.1-18.8-5.8-27.5c-26.3,3.8-34.9,24.2-34.9,36.8s6.4,15.3,12.5,19.2
										c-0.3,1.8-4.5,6.1-11.1,6.1c-8.4,0-13-7-13-16.7c0-25.2,18.1-58,43.8-58c4.6,0,7.6,0.7,10.3,2.7
										c-3.8-14,18.8-29.7,18.8-76.1c0-53.9-40-107.7-103.3-107.7v337.3c2.8,49.1,19.6,75.9,37.8,94.3
										c18.3,18.3,32.3,25.8,55.8,34.4c23.5,8.6,63.7,35.5,63.7,74.8c0,40-28,60.8-55.1,60.8c-51.1,0-75.6-52.1-75.6-95.1
										c0-11.9,0-40.6,0-61.8c2.3,2.8,4.8,5.8,8.6,9.7c3.1,14.4,1.9,22.5,5.9,58.6c5,44.9,25.3,73.5,60.6,73.5
										c29.9,0,40.8-24.6,40.8-45c0-22.6-15-39.7-34.3-51.8c-16.1-10-32.3-13.8-49.2-24.2c-29.8-18.3-50.1-41.9-58.9-65.7v156.1
										c9.8,50.5,54,88,106.8,88c69,0,96.3-57.1,96.3-93c0-11.5-3.2-23.7-8.6-36.1c-23.2-61.7-62.7-85.2-92.1-105.4
										c-38-26-52.6-68.8-60.6-92.2c5.2,12.1,12.7,24,31,43.5c32.9,35,54.6,61.8,103.5,61.8c27.9,0,27.5-4.6,53.1-4.6
										c49.5,0,76.9,36.6,76.9,52.4c-2.7,9.3-9.1,20.5-16.9,30.2c3.9,5.1,8.6,12.9,8.6,28.6c0,20.9-9.6,37-15.1,44.3
										c19.2-7.9,59.6-35.2,59.6-101.2C1543.1,445.7,1528.7,409.3,1488.8,383.7z M1283.2,502.9c22.8,0,43.8,19.4,43.8,41.9
										c0,11.7-6.1,28.3-26.7,28.3c-15.4,0-32.4-8.7-32.4-26.5c0-6.9,5.5-14.9,13.4-14.9c2.5,0,3.9,1,3.9,1c1.1,3,1.2,8.1,6.5,8.1
										s8-4.9,8-9.5c0-6.8-7.2-14.8-18.5-14.8s-20.2,6.5-23,15c-1.6-4.7-2.5-10.1-3-15.2C1258.9,511,1266.6,502.9,1283.2,502.9z
										 M1252.2,236.4c-1.1,0-2.1-0.1-2.8-0.1c-1.8-0.2-3.1-1.9-2.8-3.6c0.2-1.6,1.5-2.8,3.1-2.9c4.9-0.1,9.1-3.2,9.1-7.9
										c0-0.3-0.1-0.6-0.3-1c-0.6-1.3-0.9-2.6-0.9-4v-0.8c0-2.6,1-5.3,3.5-5.3s5.9,3.1,5.9,8.8
										C1267,228,1262.2,236.4,1252.2,236.4z"/>
								</defs>
								<clipPath id="SVGID_13_">
									<use xlink:href="#SVGID_12_"  style="overflow:visible;"/>
								</clipPath>
								<g class="st15">
									
										<linearGradient id="SVGID_14_" gradientUnits="userSpaceOnUse" x1="1326.2089" y1="341.7254" x2="1569.5421" y2="464.3921">
										<stop  offset="0" style="stop-color:#2C6F9F"/>
										<stop  offset="0.1344" style="stop-color:#2C6F9F"/>
										<stop  offset="0.263" style="stop-color:#286896"/>
										<stop  offset="0.468" style="stop-color:#1C567F"/>
										<stop  offset="0.7226" style="stop-color:#09375A"/>
										<stop  offset="0.8226" style="stop-color:#002A49"/>
										<stop  offset="1" style="stop-color:#002A49"/>
									</linearGradient>
									<path class="st16" d="M1322.2,355.2c77.3,15,125.2,10.7,160.9,16s69.8,0.7,81.1,62c11.3,61.3-27.7,67.3-27.7,67.3
										s-8.2-46.3-47.3-63.7c-39.1-17.3-47.8-18.7-87.4-16.7c-39.7,2-78.1-10.4-97.9-27.7C1306.2,376.8,1322.2,355.2,1322.2,355.2
										z"/>
									<g>
										<g>
											<path class="st6" d="M1495.2,478.9l13-30.9l14.3,33.8c0,0,9,33,0,39.7s-33.1,18.6-33.1,18.6l1.4-37.3L1495.2,478.9z"/>
											<path class="st7" d="M1505.9,473.2c1.9,14.8-0.8,27.8-9.6,39.2c-8.2,2.1-14-5.5-15.2-17.3S1498.5,471.6,1505.9,473.2z"/>
											<path class="st8" d="M1502.8,480.5c-1.1,11.6-3.8,19.5-7.3,29.8c-5.8,2.2-12.4-12.2-12.4-12.2l16.2-18.6L1502.8,480.5z"
												/>
											
												<linearGradient id="SVGID_15_" gradientUnits="userSpaceOnUse" x1="1268.8962" y1="362.9321" x2="1520.0797" y2="362.9321">
												<stop  offset="0" style="stop-color:#6FB4E8"/>
												<stop  offset="1" style="stop-color:#61A2D0"/>
											</linearGradient>
											<path class="st17" d="M1268.9,314.4c18.9,34.3,56.8,67.6,108.7,67.6c30.8,0,25.9-4,65.9-4c30.1,0,65.4,17.9,76.6,33.4
												c0.9-37.9-36.5-55.6-92.2-53c-55.7,2.7-76.2,1.7-105.8-11.5c-29.7-13.2-40.5-20.3-45.5-24.5S1268.9,314.4,1268.9,314.4z"
												/>
										</g>
									</g>
									<g>
										<path class="st8" d="M1504.6,191c0,104.9-109.4,158.5-175.8,151c10.8,8.7,46.6,21.7,86.4,12.2s118.7-48.7,122.4-99.7
											s-9.1-111.3-9.1-111.3l-28.3-11.8c6.8,13.7,17,36.9,10.6,60.6c-0.2-13.9-3.2-39.9-23.3-59.8
											C1494.7,142.7,1504.6,163.6,1504.6,191z"/>
										<path class="st8" d="M1200.6,324c9.2,52.5,36.8,83.3,62.3,103.4c43.1,33.9,104.6,55.6,94.8,118.4
											c-4.7-20.6-19.1-51.8-58.9-71.8c-39.8-20-66.2-30.5-85.2-64.1c-5.9-11.6-10.8-33.1-12.4-40.6c-0.4-1.8-0.6-3.6-0.6-5.4
											V324z"/>
										<path class="st8" d="M1230.3,454.1l-3.1-9.5c0,0,0,45.8,0,61.8c0,69.7,16.7,86.1,32.1,97.7c12.8,9.7,26.6,16.4,46.4,16.4
											c53.9,0,80.6-46.4,80.6-89c0-22-10.3-40.5-20.6-57.9c0,0,17.3,12.6,28.3,29.3c11.3,16.7,13.6,35.1,13.6,35.1
											s1.2,28.1-6.1,49.9s-17.4,57.9-17.4,57.9h-132.3l-51-58V399.8v-9.6c0,0,11,33.3,33,50.5s60,37.8,79,46.3s35,31.4,35,61.1
											s-21.8,45.4-45.3,45.4s-64.8-25.3-67.5-66S1230.3,454.1,1230.3,454.1z"/>
										
											<linearGradient id="SVGID_16_" gradientUnits="userSpaceOnUse" x1="1238.7372" y1="320.8751" x2="1402.4038" y2="538.5417">
											<stop  offset="0" style="stop-color:#6FB4E8"/>
											<stop  offset="1" style="stop-color:#61A2D0"/>
										</linearGradient>
										<path class="st18" d="M1407.4,538c-3.7-15-8.7-27.5-13.6-25.8c2.9,9.6,1.5,22.4-1.3,30.9c1.3-54.7-47.5-95.7-88.2-118.2
											c-36.9-20.4-63.2-47.7-63.2-94.2c0-6.5,1.1-13.5,1.1-13.5c1.8,4.6,2.8,8.7,7.8,17c5,8.3,26.3,47.7,57.3,70.5
											c31,22.8,54,34.3,69.5,61C1392.4,492.5,1410.4,515.2,1407.4,538z"/>
										<path class="st8" d="M1551.6,462.9h-8.5c-24.1-49.3-75.8-62.8-102.6-62.8c-26.8,0-41.8,4.2-63.8,4.2
											c-57.8,0-88-32.5-105.5-45.8l2,6.6c0,0,28.3,40.9,69,57.4s64.4,6.4,75.7,4.3c11.3-2.2,34.3-2.7,49.5,7.5
											c15.2,10.2,32.7,22.9,39.4,36.2c6.3,12.5,8.7,39.8-8.3,61.1c-10.9,20.7-24.5,56.5-24.5,56.5l43-11
											C1517.1,576.9,1551.6,525.4,1551.6,462.9z"/>
										<g>
											<path class="st11" d="M1255.1,249.7c2.7,1.3,8,3.3,8,3.3l-1.6-18l-10.5-6.2l-6-0.3l1.3,12.6l2.5,5.6l4.7,3.2
												L1255.1,249.7z"/>
											<path class="st8" d="M1252.7,248.2c-5-7.1-6.2-12.3-4.6-17.9c3.8,2.1,3,5.1,3,5.1c1.6,0.7,4.6,2.3,5.3,5.8
												c-0.1,6.1-2.7,18.6,8.6,39.7c-2.8-10.8,0.2-20.7,4.9-27.7c6.7-6.2,35.1-43.8,21-54.8s-10.6-17.1-27.1-8
												s-26.8,23.4-25.3,41.9S1249.9,251.1,1252.7,248.2z"/>
										</g>
									</g>
								</g>
							</g>
							<g>
								<path class="st8" d="M1385.5,102.2c0-23.2,17.1-38.1,35.5-38.1s27.7,13.7,27.7,19.8c8.4,0,13.7,2.2,17.6,4.7
									c-0.1-14.2-14.6-49-52.9-49c-36.5,0-57.3,27.9-57.3,60.4s17.2,39.2,25.1,39.2c0.9-5.7,4.1-12.6,9.6-19.1
									C1388.1,115.8,1385.5,109.9,1385.5,102.2z"/>
								<path class="st8" d="M1312.3,162.1c0,25.3,18.1,34,29.1,34c12.1,0,17.5-7.5,18.7-15.7c0.4-2.4-2.4-4-4.3-2.5
									c-2.5,2-5.5,3.1-8.8,3.1c-6.1,0-15.6-4.3-15.6-18.3c0-16.8,17.8-24.3,24.1-24.7c-6.2-8-9.5-17.4-10.1-23.6
									C1328.8,120.3,1312.3,138.6,1312.3,162.1z"/>
								<path class="st8" d="M1443.8,527.4c-11.9,2.3-22.7,0.6-31.1-5.9c3.3,5.8,5.2,12.6,5.2,27.2c0,2.3-0.1,4.5-0.2,6.6
									C1434.1,551,1442.2,544.8,1443.8,527.4z"/>
								<path class="st8" d="M1436.1,431.8c22.8,0,41.3,19.9,39.6,42.6c-2.5-1.3-10.2-2.4-20.1-1.1c0.4-8-7-16.5-17.3-16.5
									c-8.1,0-18.6,6.5-18.6,20.3c0,11.1,6.7,22,17.8,21.9c2.7,6.4,5,12,5.9,16c-1.4,0.6-3.5,1.1-6.6,1.1c-21.3,0-43-16.8-43-42.9
									C1393.8,447.2,1413.6,431.8,1436.1,431.8z"/>
							</g>
							<g>
								<g>
									<path class="st1" d="M1403.3,149.7c-2.9,1.2-7.4,3.8-18.4,3.8c-8.8,0-16.1-3.2-21.9-7.9c4.2,7.7,7.5,17.5,7.5,27.7
										c0,51.8-40.5,88.5-88.3,91.3c4.3,23.4,23.2,37.8,45.6,37.8c34.6,0,82-46.8,82-112.4
										C1409.8,171.8,1406.8,161.2,1403.3,149.7z"/>
									<g>
										<defs>
											<path id="SVGID_17_" d="M1403.3,149.7c-2.9,1.2-7.4,3.8-18.4,3.8c-8.8,0-16.1-3.2-21.9-7.9c4.2,7.7,7.5,17.5,7.5,27.7
												c0,51.8-40.5,88.5-88.3,91.3c4.3,23.4,23.2,37.8,45.6,37.8c34.6,0,82-46.8,82-112.4
												C1409.8,171.8,1406.8,161.2,1403.3,149.7z"/>
										</defs>
										<clipPath id="SVGID_18_">
											<use xlink:href="#SVGID_17_"  style="overflow:visible;"/>
										</clipPath>
										<path class="st19" d="M1391.4,186.4c0,62.6-50.5,102.4-94.7,104.6c1.7,8.8,14.3,23.4,52.6,11.4s71.8-52.9,71.8-106.3
											s-18.3-53.6-18.3-53.6l-19.9,7.4C1386.1,156.5,1391.4,171,1391.4,186.4z"/>
									</g>
								</g>
								<g>
									<path class="st1" d="M1460.9,488.9c-4.4,0-8.5,2.9-12.3,6.3c3.9,8.3,7.1,15.5,7.1,24.7c0,24.9-13.7,45.3-39.7,48.6
										c-3.3,17.2-10.3,30.4-16,38.6c17.9-1.6,85.2-16.5,85.2-80.4C1485.1,502.3,1467.7,488.9,1460.9,488.9z"/>
									<g>
										<defs>
											<path id="SVGID_19_" d="M1460.9,488.9c-4.4,0-8.5,2.9-12.3,6.3c3.9,8.3,7.1,15.5,7.1,24.7c0,24.9-13.7,45.3-39.7,48.6
												c-3.3,17.2-10.3,30.4-16,38.6c17.9-1.6,85.2-16.5,85.2-80.4C1485.1,502.3,1467.7,488.9,1460.9,488.9z"/>
										</defs>
										<clipPath id="SVGID_20_">
											<use xlink:href="#SVGID_19_"  style="overflow:visible;"/>
										</clipPath>
										<path class="st20" d="M1474.8,517.7c0,39.1-35.2,63.4-62.4,64.3c-17.8,6.2-22.4,24.4-16.1,32.7s34.5,15.4,34.5,15.4
											s31.1-26.4,41.4-46.3s17.1-38.5,14.9-54.4s-3.4-22.4-10.1-35.4s-16-10.3-16-5.1C1468.1,493.5,1474.8,500.7,1474.8,517.7z"
											/>
									</g>
								</g>
							</g>
						</g>
						<g>
							<g>
								<polygon class="st2" points="1174,459.4 1163.1,472.1 1157.1,472.1 1163.2,451.8 1177.6,440.2 								"/>
								<path class="st3" d="M1079,526.2c-7.9,34.9,18.1,46.3,41.4,41.9c4.4,8.3-19.9,17.6-36.9,7.3c-17.1-10.3-17.8-27.8-15.4-35.8
									C1070.5,531.7,1068.5,529.3,1079,526.2z"/>
							</g>
							<path class="st1" d="M858.1,472.3c0,66,40.4,93.3,59.6,101.2c-5.5-7.3-15.1-23.4-15.1-44.3c0-15.8,4.7-23.6,8.6-28.6
								c-7.8-9.7-14.2-21-16.9-30.2c0-15.8,27.4-52.4,76.9-52.4c25.6,0,25.3,4.6,53.1,4.6c48.9,0,70.6-26.8,103.5-61.8
								c18.3-19.5,25.8-31.4,31-43.5c-8,23.3-22.6,66.2-60.6,92.2c-29.4,20.1-68.9,43.7-92.1,105.4c-5.4,12.3-8.6,24.5-8.6,36.1
								c0,35.9,27.3,93,96.3,93c52.8,0,96.9-37.6,106.8-88V399.8c-8.8,23.8-29.1,47.3-58.9,65.7c-16.9,10.4-33.1,14.1-49.2,24.2
								c-19.3,12.1-34.3,29.2-34.3,51.8c0,20.4,10.9,45,40.8,45c35.3,0,55.6-28.6,60.6-73.5c4-36.1,2.8-44.3,5.9-58.6
								c3.8-3.9,6.3-6.9,8.6-9.7c0,21.2,0,49.9,0,61.8c0,43-24.4,95.1-75.6,95.1c-27.1,0-55.1-20.8-55.1-60.8
								c0-39.3,40.2-66.2,63.7-74.8c23.5-8.6,37.5-16.1,55.8-34.4c18.3-18.3,35-45.2,37.8-94.3V0c-63.3,0-103.3,53.8-103.3,107.7
								c0,46.4,22.6,62.1,18.8,76.1c2.6-2,5.7-2.7,10.3-2.7c25.7,0,43.8,32.9,43.8,58c0,9.6-4.6,16.7-13,16.7
								c-6.6,0-10.8-4.3-11.1-6.1c6.1-4,12.5-6.7,12.5-19.2s-8.6-33-34.9-36.8c2.4,8.7-5.8,14.9-5.8,27.5c0,11.4,4.7,19.3,13.8,22.1
								c1.4,3.9,1.2,9.5,1.2,13.5c0,27.9-21.2,59.1-60.2,59.1c-43.9,0-153.5-49.4-153.5-132.7c0-32.4,22.9-58.1,51.6-58.1
								c13.5,0,24.2,6.4,30.1,10.7c3,2.2,6.6,3.3,10.3,3.3h5.9h2.9c-0.9-5.7-4.1-12.6-9.6-19.1c-9.6-11.4-26-21.6-48.3-21.6
								c-42.5,0-82.5,41.4-82.5,101.1c0,89.6,72.5,150.3,133.1,150.3c36.8,0,42.3-4.8,59.7-7.8s44.3-9.2,59.9-27.6
								c-13.7,21.8-54.5,45.1-103.7,48.1c-35.1,2.2-73.4-6.3-116.2,21.2C872.4,409.3,858.1,445.7,858.1,472.3z M1145.9,516.5
								c-0.5,5.1-1.4,10.5-3,15.2c-2.9-8.5-11.7-15-23-15s-18.5,8-18.5,14.8c0,4.6,2.7,9.5,8,9.5s5.4-5.2,6.5-8.1c0,0,1.4-1,3.9-1
								c7.9,0,13.4,8,13.4,14.9c0,17.8-17,26.5-32.4,26.5c-20.6,0-26.7-16.7-26.7-28.3c0-22.5,21-41.9,43.8-41.9
								C1134.5,502.9,1142.3,511,1145.9,516.5z M1134.1,219.7c0-5.7,3.4-8.8,5.9-8.8s3.5,2.6,3.5,5.3v0.8c0,1.4-0.4,2.7-0.9,4
								c-0.1,0.3-0.3,0.7-0.3,1c0,4.7,4.2,7.8,9.1,7.9c1.6,0,2.9,1.3,3.1,2.9c0.2,1.8-1,3.4-2.8,3.6c-0.8,0.1-1.7,0.1-2.8,0.1
								C1138.9,236.4,1134.1,228,1134.1,219.7z"/>
							<g>
								<defs>
									<path id="SVGID_21_" d="M858.1,472.3c0,66,40.4,93.3,59.6,101.2c-5.5-7.3-15.1-23.4-15.1-44.3c0-15.8,4.7-23.6,8.6-28.6
										c-7.8-9.7-14.2-21-16.9-30.2c0-15.8,27.4-52.4,76.9-52.4c25.6,0,25.3,4.6,53.1,4.6c48.9,0,70.6-26.8,103.5-61.8
										c18.3-19.5,25.8-31.4,31-43.5c-8,23.3-22.6,66.2-60.6,92.2c-29.4,20.1-68.9,43.7-92.1,105.4c-5.4,12.3-8.6,24.5-8.6,36.1
										c0,35.9,27.3,93,96.3,93c52.8,0,96.9-37.6,106.8-88V399.8c-8.8,23.8-29.1,47.3-58.9,65.7c-16.9,10.4-33.1,14.1-49.2,24.2
										c-19.3,12.1-34.3,29.2-34.3,51.8c0,20.4,10.9,45,40.8,45c35.3,0,55.6-28.6,60.6-73.5c4-36.1,2.8-44.3,5.9-58.6
										c3.8-3.9,6.3-6.9,8.6-9.7c0,21.2,0,49.9,0,61.8c0,43-24.4,95.1-75.6,95.1c-27.1,0-55.1-20.8-55.1-60.8
										c0-39.3,40.2-66.2,63.7-74.8c23.5-8.6,37.5-16.1,55.8-34.4c18.3-18.3,35-45.2,37.8-94.3V0c-63.3,0-103.3,53.8-103.3,107.7
										c0,46.4,22.6,62.1,18.8,76.1c2.6-2,5.7-2.7,10.3-2.7c25.7,0,43.8,32.9,43.8,58c0,9.6-4.6,16.7-13,16.7
										c-6.6,0-10.8-4.3-11.1-6.1c6.1-4,12.5-6.7,12.5-19.2s-8.6-33-34.9-36.8c2.4,8.7-5.8,14.9-5.8,27.5
										c0,11.4,4.7,19.3,13.8,22.1c1.4,3.9,1.2,9.5,1.2,13.5c0,27.9-21.2,59.1-60.2,59.1c-43.9,0-153.5-49.4-153.5-132.7
										c0-32.4,22.9-58.1,51.6-58.1c13.5,0,24.2,6.4,30.1,10.7c3,2.2,6.6,3.3,10.3,3.3h5.9h2.9c-0.9-5.7-4.1-12.6-9.6-19.1
										c-9.6-11.4-26-21.6-48.3-21.6c-42.5,0-82.5,41.4-82.5,101.1c0,89.6,72.5,150.3,133.1,150.3c36.8,0,42.3-4.8,59.7-7.8
										s44.3-9.2,59.9-27.6c-13.7,21.8-54.5,45.1-103.7,48.1c-35.1,2.2-73.4-6.3-116.2,21.2C872.4,409.3,858.1,445.7,858.1,472.3z
										 M1145.9,516.5c-0.5,5.1-1.4,10.5-3,15.2c-2.9-8.5-11.7-15-23-15s-18.5,8-18.5,14.8c0,4.6,2.7,9.5,8,9.5s5.4-5.2,6.5-8.1
										c0,0,1.4-1,3.9-1c7.9,0,13.4,8,13.4,14.9c0,17.8-17,26.5-32.4,26.5c-20.6,0-26.7-16.7-26.7-28.3c0-22.5,21-41.9,43.8-41.9
										C1134.5,502.9,1142.3,511,1145.9,516.5z M1134.1,219.7c0-5.7,3.4-8.8,5.9-8.8s3.5,2.6,3.5,5.3v0.8c0,1.4-0.4,2.7-0.9,4
										c-0.1,0.3-0.3,0.7-0.3,1c0,4.7,4.2,7.8,9.1,7.9c1.6,0,2.9,1.3,3.1,2.9c0.2,1.8-1,3.4-2.8,3.6c-0.8,0.1-1.7,0.1-2.8,0.1
										C1138.9,236.4,1134.1,228,1134.1,219.7z"/>
								</defs>
								<clipPath id="SVGID_22_">
									<use xlink:href="#SVGID_21_"  style="overflow:visible;"/>
								</clipPath>
								<g class="st21">
									
										<linearGradient id="SVGID_23_" gradientUnits="userSpaceOnUse" x1="-2223.4167" y1="341.7254" x2="-1980.0834" y2="464.3921" gradientTransform="matrix(-1 0 0 1 -1148.5 0)">
										<stop  offset="0" style="stop-color:#2C6F9F"/>
										<stop  offset="0.1344" style="stop-color:#2C6F9F"/>
										<stop  offset="0.263" style="stop-color:#286896"/>
										<stop  offset="0.468" style="stop-color:#1C567F"/>
										<stop  offset="0.7226" style="stop-color:#09375A"/>
										<stop  offset="0.8226" style="stop-color:#002A49"/>
										<stop  offset="1" style="stop-color:#002A49"/>
									</linearGradient>
									<path class="st22" d="M1078.9,355.2c-77.3,15-125.2,10.7-160.9,16s-69.8,0.7-81.1,62c-11.3,61.3,27.7,67.3,27.7,67.3
										s8.2-46.3,47.3-63.7c39.1-17.3,47.8-18.7,87.4-16.7s78.1-10.4,97.9-27.7C1094.9,376.8,1078.9,355.2,1078.9,355.2z"/>
									<g>
										<g>
											<path class="st6" d="M905.9,478.9l-13-30.9l-14.3,33.8c0,0-9,33,0,39.7s33.1,18.6,33.1,18.6l-1.4-37.3L905.9,478.9z"/>
											<path class="st7" d="M895.2,473.2c-1.9,14.8,0.8,27.8,9.6,39.2c8.2,2.1,14-5.5,15.2-17.3S902.7,471.6,895.2,473.2z"/>
											<path class="st8" d="M898.3,480.5c1.1,11.6,3.8,19.5,7.3,29.8c5.8,2.2,12.4-12.2,12.4-12.2l-16.2-18.6L898.3,480.5z"/>
											
												<linearGradient id="SVGID_24_" gradientUnits="userSpaceOnUse" x1="-2280.7292" y1="362.9321" x2="-2029.5458" y2="362.9321" gradientTransform="matrix(-1 0 0 1 -1148.5 0)">
												<stop  offset="0" style="stop-color:#6FB4E8"/>
												<stop  offset="1" style="stop-color:#61A2D0"/>
											</linearGradient>
											<path class="st23" d="M1132.2,314.4c-18.9,34.3-56.8,67.6-108.7,67.6c-30.8,0-25.9-4-65.9-4c-30.1,0-65.4,17.9-76.6,33.4
												c-0.9-37.9,36.5-55.6,92.2-53s76.2,1.7,105.8-11.5c29.7-13.2,40.5-20.3,45.5-24.5S1132.2,314.4,1132.2,314.4z"/>
										</g>
									</g>
									<g>
										<path class="st8" d="M896.6,191c0,104.9,109.4,158.5,175.8,151c-10.8,8.7-46.6,21.7-86.4,12.2s-118.7-48.7-122.4-99.7
											s9.1-111.3,9.1-111.3l28.3-11.8c-6.8,13.7-17,36.9-10.6,60.6c0.2-13.9,3.2-39.9,23.3-59.8
											C906.4,142.7,896.6,163.6,896.6,191z"/>
										<path class="st8" d="M1200.6,324c-9.2,52.5-36.8,83.3-62.3,103.4c-43.1,33.9-104.6,55.6-94.8,118.4
											c4.7-20.6,19.1-51.8,58.9-71.8c39.8-20,66.2-30.5,85.2-64.1c5.9-11.6,10.8-33.1,12.4-40.6c0.4-1.8,0.6-3.6,0.6-5.4V324z"
											/>
										<path class="st8" d="M1170.9,454.1l3.1-9.5c0,0,0,45.8,0,61.8c0,69.7-16.7,86.1-32.1,97.7c-12.8,9.7-26.6,16.4-46.4,16.4
											c-53.9,0-80.6-46.4-80.6-89c0-22,10.3-40.5,20.6-57.9c0,0-17.3,12.6-28.3,29.3c-11.3,16.7-13.6,35.1-13.6,35.1
											s-1.2,28.1,6.1,49.9s17.4,57.9,17.4,57.9h132.3l51-58V399.8v-9.6c0,0-11,33.3-33,50.5s-60,37.8-79,46.3s-35,31.4-35,61.1
											s21.8,45.4,45.3,45.4s64.8-25.3,67.5-66S1170.9,454.1,1170.9,454.1z"/>
										
											<linearGradient id="SVGID_25_" gradientUnits="userSpaceOnUse" x1="-2310.8884" y1="320.8751" x2="-2147.2217" y2="538.5417" gradientTransform="matrix(-1 0 0 1 -1148.5 0)">
											<stop  offset="0" style="stop-color:#6FB4E8"/>
											<stop  offset="1" style="stop-color:#61A2D0"/>
										</linearGradient>
										<path class="st24" d="M993.7,538c3.7-15,8.7-27.5,13.6-25.8c-2.9,9.6-1.5,22.4,1.3,30.9c-1.3-54.7,47.5-95.7,88.2-118.2
											c36.9-20.4,63.2-47.7,63.2-94.2c0-6.5-1.1-13.5-1.1-13.5c-1.8,4.6-2.8,8.7-7.8,17c-5,8.3-26.3,47.7-57.3,70.5
											c-31,22.8-54,34.3-69.5,61C1008.7,492.5,990.7,515.2,993.7,538z"/>
										<path class="st8" d="M849.6,462.9h8.5c24.1-49.3,75.8-62.8,102.6-62.8c26.8,0,41.8,4.2,63.8,4.2
											c57.8,0,88-32.5,105.5-45.8l-2,6.6c0,0-28.3,40.9-69,57.4s-64.4,6.4-75.7,4.3c-11.3-2.2-34.3-2.7-49.5,7.5
											c-15.2,10.2-32.7,22.9-39.4,36.2c-6.3,12.5-8.7,39.8,8.3,61.1c10.9,20.7,24.5,56.5,24.5,56.5l-43-11
											C884.1,576.9,849.6,525.4,849.6,462.9z"/>
										<g>
											<path class="st11" d="M1146,249.7c-2.7,1.3-8,3.3-8,3.3l1.6-18l10.5-6.2l6-0.3l-1.3,12.6l-2.5,5.6l-4.7,3.2L1146,249.7z"
												/>
											<path class="st8" d="M1148.5,248.2c5-7.1,6.2-12.3,4.6-17.9c-3.8,2.1-3,5.1-3,5.1c-1.6,0.7-4.6,2.3-5.3,5.8
												c0.1,6.1,2.7,18.6-8.6,39.7c2.8-10.8-0.2-20.7-4.9-27.7c-6.7-6.2-35.1-43.8-21-54.8s10.6-17.1,27.1-8
												s26.8,23.4,25.3,41.9S1151.2,251.1,1148.5,248.2z"/>
										</g>
									</g>
								</g>
							</g>
							<g>
								<path class="st8" d="M1015.6,102.2c0-23.2-17.1-38.1-35.5-38.1s-27.7,13.7-27.7,19.8c-8.4,0-13.7,2.2-17.6,4.7
									c0.1-14.2,14.6-49,52.9-49c36.5,0,57.3,27.9,57.3,60.4s-17.2,39.2-25.1,39.2c-0.9-5.7-4.1-12.6-9.6-19.1
									C1013,115.8,1015.6,109.9,1015.6,102.2z"/>
								<path class="st8" d="M1088.8,162.1c0,25.3-18.1,34-29.1,34c-12.1,0-17.5-7.5-18.7-15.7c-0.4-2.4,2.4-4,4.3-2.5
									c2.5,2,5.5,3.1,8.8,3.1c6.1,0,15.6-4.3,15.6-18.3c0-16.8-17.8-24.3-24.1-24.7c6.2-8,9.5-17.4,10.1-23.6
									C1072.4,120.3,1088.8,138.6,1088.8,162.1z"/>
								<path class="st8" d="M957.4,527.4c11.9,2.3,22.7,0.6,31.1-5.9c-3.3,5.8-5.2,12.6-5.2,27.2c0,2.3,0.1,4.5,0.2,6.6
									C967,551,958.9,544.8,957.4,527.4z"/>
								<path class="st8" d="M965.1,431.8c-22.8,0-41.3,19.9-39.6,42.6c2.5-1.3,10.2-2.4,20.1-1.1c-0.4-8,7-16.5,17.3-16.5
									c8.1,0,18.6,6.5,18.6,20.3c0,11.1-6.7,22-17.8,21.9c-2.7,6.4-5,12-5.9,16c1.4,0.6,3.5,1.1,6.6,1.1c21.3,0,43-16.8,43-42.9
									C1007.3,447.2,987.6,431.8,965.1,431.8z"/>
							</g>
							<g>
								<g>
									<path class="st1" d="M997.9,149.7c2.9,1.2,7.4,3.8,18.4,3.8c8.8,0,16.1-3.2,21.9-7.9c-4.2,7.7-7.5,17.5-7.5,27.7
										c0,51.8,40.5,88.5,88.3,91.3c-4.3,23.4-23.2,37.8-45.6,37.8c-34.6,0-82-46.8-82-112.4C991.3,171.8,994.4,161.2,997.9,149.7
										z"/>
									<g>
										<defs>
											<path id="SVGID_26_" d="M997.9,149.7c2.9,1.2,7.4,3.8,18.4,3.8c8.8,0,16.1-3.2,21.9-7.9c-4.2,7.7-7.5,17.5-7.5,27.7
												c0,51.8,40.5,88.5,88.3,91.3c-4.3,23.4-23.2,37.8-45.6,37.8c-34.6,0-82-46.8-82-112.4
												C991.3,171.8,994.4,161.2,997.9,149.7z"/>
										</defs>
										<clipPath id="SVGID_27_">
											<use xlink:href="#SVGID_26_"  style="overflow:visible;"/>
										</clipPath>
										<path class="st25" d="M1009.7,186.4c0,62.6,50.5,102.4,94.7,104.6c-1.7,8.8-14.3,23.4-52.6,11.4s-71.8-52.9-71.8-106.3
											s18.3-53.6,18.3-53.6l19.9,7.4C1015.1,156.5,1009.7,171,1009.7,186.4z"/>
									</g>
								</g>
								<g>
									<path class="st1" d="M940.2,488.9c4.4,0,8.5,2.9,12.3,6.3c-3.9,8.3-7.1,15.5-7.1,24.7c0,24.9,13.7,45.3,39.7,48.6
										c3.3,17.2,10.3,30.4,16,38.6c-17.9-1.6-85.2-16.5-85.2-80.4C916.1,502.3,933.4,488.9,940.2,488.9z"/>
									<g>
										<defs>
											<path id="SVGID_28_" d="M940.2,488.9c4.4,0,8.5,2.9,12.3,6.3c-3.9,8.3-7.1,15.5-7.1,24.7c0,24.9,13.7,45.3,39.7,48.6
												c3.3,17.2,10.3,30.4,16,38.6c-17.9-1.6-85.2-16.5-85.2-80.4C916.1,502.3,933.4,488.9,940.2,488.9z"/>
										</defs>
										<clipPath id="SVGID_29_">
											<use xlink:href="#SVGID_28_"  style="overflow:visible;"/>
										</clipPath>
										<path class="st26" d="M926.3,517.7c0,39.1,35.2,63.4,62.4,64.3c17.8,6.2,22.4,24.4,16.1,32.7S970.3,630,970.3,630
											s-31.1-26.4-41.4-46.3s-17.1-38.5-14.9-54.4s3.4-22.4,10.1-35.4s16-10.3,16-5.1C933.1,493.5,926.3,500.7,926.3,517.7z"/>
									</g>
								</g>
							</g>
						</g>
						<g>
							<defs>
								<path id="SVGID_30_" d="M1488.8,383.7c-42.8-27.5-81.1-19-116.2-21.2c-49.1-3-90-26.3-103.7-48.1
									c15.7,18.4,42.5,24.6,59.9,27.6s22.9,7.8,59.7,7.8c60.6,0,133.1-60.7,133.1-150.3c0-59.7-40-101.1-82.5-101.1
									c-22.3,0-38.7,10.2-48.3,21.6c-5.4,6.5-8.7,13.4-9.6,19.1h2.9h5.9c3.7,0,7.3-1.1,10.3-3.3c5.9-4.3,16.5-10.7,30.1-10.7
									c28.7,0,51.6,25.7,51.6,58.1c0,83.3-109.5,132.7-153.5,132.7c-39.1,0-60.2-31.1-60.2-59.1c0-4-0.2-9.6,1.2-13.5
									c9.1-2.8,13.8-10.8,13.8-22.1c0-12.6-8.1-18.8-5.8-27.5c-26.3,3.8-34.9,24.2-34.9,36.8s6.4,15.3,12.5,19.2
									c-0.3,1.8-4.5,6.1-11.1,6.1c-8.4,0-13-7-13-16.7c0-25.2,18.1-58,43.8-58c4.6,0,7.6,0.7,10.3,2.7
									c-3.8-14,18.8-29.7,18.8-76.1c0-53.9-40-107.7-103.3-107.7s-103.3,53.8-103.3,107.7c0,46.4,22.6,62.1,18.8,76.1
									c2.6-2,5.7-2.7,10.3-2.7c25.7,0,43.8,32.9,43.8,58c0,9.6-4.6,16.7-13,16.7c-6.6,0-10.8-4.3-11.1-6.1
									c6.1-4,12.5-6.7,12.5-19.2s-8.6-33-34.9-36.8c2.4,8.7-5.8,14.9-5.8,27.5c0,11.4,4.7,19.3,13.8,22.1
									c1.4,3.9,1.2,9.5,1.2,13.5c0,27.9-21.2,59.1-60.2,59.1c-43.9,0-153.5-49.4-153.5-132.7c0-32.4,22.9-58.1,51.6-58.1
									c13.5,0,24.2,6.4,30.1,10.7c3,2.2,6.6,3.3,10.3,3.3h5.9h2.9c-0.9-5.7-4.1-12.6-9.6-19.1c-9.6-11.4-26-21.6-48.3-21.6
									c-42.5,0-82.5,41.4-82.5,101.1c0,89.6,72.5,150.3,133.1,150.3c36.8,0,42.3-4.8,59.7-7.8s44.3-9.2,59.9-27.6
									c-13.7,21.8-54.5,45.1-103.7,48.1c-35.1,2.2-73.4-6.3-116.2,21.2c-39.9,25.7-54.3,62-54.3,88.7c0,66,40.4,93.3,59.6,101.2
									c-5.5-7.3-15.1-23.4-15.1-44.3c0-15.8,4.7-23.6,8.6-28.6c-7.8-9.7-14.2-21-16.9-30.2c0-15.8,27.4-52.4,76.9-52.4
									c25.6,0,25.3,4.6,53.1,4.6c48.9,0,70.6-26.8,103.5-61.8c18.3-19.5,25.8-31.4,31-43.5c-8,23.3-22.6,66.2-60.6,92.2
									c-29.4,20.1-68.9,43.7-92.1,105.4c-5.4,12.3-8.6,24.5-8.6,36.1c0,35.9,27.3,93,96.3,93c52.8,0,96.9-37.6,106.8-88
									c9.8,50.5,54,88,106.8,88c69,0,96.3-57.1,96.3-93c0-11.5-3.2-23.7-8.6-36.1c-23.2-61.7-62.7-85.2-92.1-105.4
									c-38-26-52.6-68.8-60.6-92.2c5.2,12.1,12.7,24,31,43.5c32.9,35,54.6,61.8,103.5,61.8c27.9,0,27.5-4.6,53.1-4.6
									c49.5,0,76.9,36.6,76.9,52.4c-2.7,9.3-9.1,20.5-16.9,30.2c3.9,5.1,8.6,12.9,8.6,28.6c0,20.9-9.6,37-15.1,44.3
									c19.2-7.9,59.6-35.2,59.6-101.2C1543.1,445.7,1528.7,409.3,1488.8,383.7z M1134.1,219.7c0-5.7,3.4-8.8,5.9-8.8
									s3.5,2.6,3.5,5.3v0.8c0,1.4-0.4,2.7-0.9,4c-0.1,0.3-0.3,0.7-0.3,1c0,4.7,4.2,7.8,9.1,7.9c1.6,0,2.9,1.3,3.1,2.9
									c0.2,1.8-1,3.4-2.8,3.6c-0.8,0.1-1.7,0.1-2.8,0.1C1138.9,236.4,1134.1,228,1134.1,219.7z M1294.1,466
									c23.5,8.6,63.7,35.5,63.7,74.8c0,40-28,60.8-55.1,60.8c-51.1,0-75.6-52.1-75.6-95.1c0-11.9,0-40.6,0-61.8
									c2.3,2.8,4.8,5.8,8.6,9.7c3.1,14.4,1.9,22.5,5.9,58.6c5,44.9,25.3,73.5,60.6,73.5c29.9,0,40.8-24.6,40.8-45
									c0-22.6-15-39.7-34.3-51.8c-16.1-10-32.3-13.8-49.2-24.2c-29.8-18.3-50.1-41.9-58.9-65.7c-8.8,23.8-29.1,47.3-58.9,65.7
									c-16.9,10.4-33.1,14.1-49.2,24.2c-19.3,12.1-34.3,29.2-34.3,51.8c0,20.4,10.9,45,40.8,45c35.3,0,55.6-28.6,60.6-73.5
									c4-36.1,2.8-44.3,5.9-58.6c3.8-3.9,6.3-6.9,8.6-9.7c0,21.2,0,49.9,0,61.8c0,43-24.4,95.1-75.6,95.1
									c-27.1,0-55.1-20.8-55.1-60.8c0-39.3,40.2-66.2,63.7-74.8c23.5-8.6,37.5-16.1,55.8-34.4c18.3-18.3,35-45.2,37.8-94.3
									c2.8,49.1,19.6,75.9,37.8,94.3C1256.6,449.9,1270.6,457.4,1294.1,466z M1281.3,516.7c-11.4,0-20.2,6.5-23,15
									c-1.6-4.7-2.5-10.1-3-15.2c3.6-5.5,11.4-13.6,28-13.6c22.8,0,43.8,19.4,43.8,41.9c0,11.7-6.1,28.3-26.7,28.3
									c-15.4,0-32.4-8.7-32.4-26.5c0-6.9,5.5-14.9,13.4-14.9c2.5,0,3.9,1,3.9,1c1.1,3,1.2,8.1,6.5,8.1s8-4.9,8-9.5
									C1299.9,524.6,1292.7,516.7,1281.3,516.7z M1109.3,540.9c5.3,0,5.4-5.2,6.5-8.1c0,0,1.4-1,3.9-1c7.9,0,13.4,8,13.4,14.9
									c0,17.8-17,26.5-32.4,26.5c-20.6,0-26.7-16.7-26.7-28.3c0-22.5,21-41.9,43.8-41.9c16.6,0,24.4,8.1,28,13.6
									c-0.5,5.1-1.4,10.5-3,15.2c-2.9-8.5-11.7-15-23-15s-18.5,8-18.5,14.8C1101.3,536,1104,540.9,1109.3,540.9z M1252.2,236.4
									c-1.1,0-2.1-0.1-2.8-0.1c-1.8-0.2-3.1-1.9-2.8-3.6c0.2-1.6,1.5-2.8,3.1-2.9c4.9-0.1,9.1-3.2,9.1-7.9c0-0.3-0.1-0.6-0.3-1
									c-0.6-1.3-0.9-2.6-0.9-4v-0.8c0-2.6,1-5.3,3.5-5.3s5.9,3.1,5.9,8.8C1267,228,1262.2,236.4,1252.2,236.4z"/>
							</defs>
							<clipPath id="SVGID_31_">
								<use xlink:href="#SVGID_30_"  style="overflow:visible;"/>
							</clipPath>
							<g class="st27">
								<path class="st28" d="M1266.7,102.8c0,32.8-11.3,59.2-32.5,74.2c12-4.3,19.4-6.1,33.6-6.1l15.4-1.9c0,0,18.3-35.3,12.6-79.3
									s-36.8-71.5-36.8-71.5h-30l1.2,17.3C1241.7,41.5,1266.7,67.6,1266.7,102.8z"/>
								<path class="st29" d="M1206.7,30.7c26.5,0,63.5,20.2,70.7,71.2c0.2-19.5-4.4-41-10.2-53.7c-9-19.3-36.2-37.2-36.2-37.2
									s-12-4.7-29.5-4.7s-60,23.2-69.3,43.9s-10.4,32.1-10.4,44.7c0,28.5,6.4,44.4,15,56.9c-3-11.3-5.3-23.9-5.3-35.6
									C1131.7,66.5,1173.4,30.7,1206.7,30.7z"/>
								<path class="st30" d="M1287.2,7.7l-86.7-17.5l-86.7,17.5l-31,85.7l17,90.5h16.2c2.1-6.3,8.8-12.9,17.3-12.9
									c-9.6-12.8-19.8-35.8-19.8-65.8c0-47.7,40-91,87-91s87,43.3,87,91c0,30-10.1,53-19.8,65.8c8.5,0,15.2,6.6,17.3,12.9h16.2
									l17-90.5L1287.2,7.7z"/>
								<polygon class="st8" points="1194.1,430.5 1200.6,399.8 1212.9,459.4 1223.6,557.4 1200.6,555.9 1187.6,559.2 								"/>
								<polygon class="st8" points="1200.6,337.3 1199.5,335 1200.6,324 1201.8,334.6 								"/>
							</g>
						</g>
					</g>
					
						<linearGradient id="SVGID_32_" gradientUnits="userSpaceOnUse" x1="-1365.3539" y1="341.7254" x2="-1122.0206" y2="464.3921" gradientTransform="matrix(-1 0 0 1 -1148.5 0)">
						<stop  offset="0" style="stop-color:#2C6F9F"/>
						<stop  offset="0.1344" style="stop-color:#2C6F9F"/>
						<stop  offset="0.263" style="stop-color:#286896"/>
						<stop  offset="0.468" style="stop-color:#1C567F"/>
						<stop  offset="0.7226" style="stop-color:#09375A"/>
						<stop  offset="0.8226" style="stop-color:#002A49"/>
						<stop  offset="1" style="stop-color:#002A49"/>
					</linearGradient>
					<path class="st31" d="M220.8,355.2c-77.3,15-125.2,10.7-160.9,16s-69.8,0.7-81.1,62s27.7,67.3,27.7,67.3s8.2-46.3,47.3-63.7
						c39.1-17.3,47.8-18.7,87.4-16.7s78.1-10.4,97.9-27.7C236.8,376.8,220.8,355.2,220.8,355.2z"/>
					<g>
						<g>
							<path class="st6" d="M47.9,478.9l-13-30.9l-14.3,33.8c0,0-9,33,0,39.7S53.8,540,53.8,540l-1.4-37.3L47.9,478.9z"/>
							<path class="st7" d="M37.2,473.2C35.3,488,38,501,46.8,512.4c8.2,2.1,14-5.5,15.2-17.3S44.6,471.6,37.2,473.2z"/>
							<path class="st8" d="M40.3,480.5c1.1,11.6,3.8,19.5,7.3,29.8c5.8,2.2,12.4-12.2,12.4-12.2l-16.2-18.6L40.3,480.5z"/>
							
								<linearGradient id="SVGID_33_" gradientUnits="userSpaceOnUse" x1="-1422.6665" y1="362.9321" x2="-1171.483" y2="362.9321" gradientTransform="matrix(-1 0 0 1 -1148.5 0)">
								<stop  offset="0" style="stop-color:#6FB4E8"/>
								<stop  offset="1" style="stop-color:#61A2D0"/>
							</linearGradient>
							<path class="st32" d="M274.2,314.4c-18.9,34.3-56.8,67.6-108.7,67.6c-30.8,0-25.9-4-65.9-4C69.5,378,34.2,396,23,411.4
								c-0.9-37.9,36.5-55.6,92.2-53s76.2,1.7,105.8-11.5c29.7-13.2,40.5-20.3,45.5-24.5S274.2,314.4,274.2,314.4z"/>
						</g>
					</g>
					<g>
						<path class="st8" d="M38.5,191c0,104.9,109.4,158.5,175.8,151c-10.8,8.7-46.6,21.7-86.4,12.2S9.2,305.5,5.5,254.5
							s9.1-111.3,9.1-111.3L43,131.4c-6.8,13.7-17,36.9-10.6,60.6c0.2-13.9,3.2-39.9,23.3-59.8C48.3,142.7,38.5,163.6,38.5,191z"/>
						<path class="st8" d="M342.5,324c-9.2,52.5-36.8,83.3-62.3,103.4c-43.1,33.9-104.6,55.6-94.8,118.4
							c4.7-20.6,19.1-51.8,58.9-71.8s66.2-30.5,85.2-64.1c5.9-11.6,10.8-33.1,12.4-40.6c0.4-1.8,0.6-3.6,0.6-5.4V324z"/>
						<path class="st8" d="M312.8,454.1l3.1-9.5c0,0,0,45.8,0,61.8c0,69.7-16.7,86.1-32.1,97.7c-12.8,9.7-26.6,16.4-46.4,16.4
							c-53.9,0-80.6-46.4-80.6-89c0-22,10.3-40.5,20.6-57.9c0,0-17.3,12.6-28.3,29.3C138,519.6,135.7,538,135.7,538
							s-1.2,28.1,6.1,49.9s17.4,57.9,17.4,57.9h132.3l51-58V399.8v-9.6c0,0-11,33.3-33,50.5s-60,37.8-79,46.3s-35,31.4-35,61.1
							s21.8,45.4,45.3,45.4s64.8-25.3,67.5-66S312.8,454.1,312.8,454.1z"/>
						
							<linearGradient id="SVGID_34_" gradientUnits="userSpaceOnUse" x1="-1452.8256" y1="320.8751" x2="-1289.1589" y2="538.5417" gradientTransform="matrix(-1 0 0 1 -1148.5 0)">
							<stop  offset="0" style="stop-color:#6FB4E8"/>
							<stop  offset="1" style="stop-color:#61A2D0"/>
						</linearGradient>
						<path class="st33" d="M135.7,538c3.7-15,8.7-27.5,13.6-25.8c-2.9,9.6-1.5,22.4,1.3,30.9c-1.3-54.7,47.5-95.7,88.2-118.2
							c36.9-20.4,63.2-47.7,63.2-94.2c0-6.5-1.1-13.5-1.1-13.5c-1.8,4.6-2.8,8.7-7.8,17c-5,8.3-26.3,47.7-57.2,70.5
							c-31,22.8-54,34.3-69.5,61C150.7,492.5,132.7,515.2,135.7,538z"/>
						<path class="st8" d="M-8.5,462.9H0c24.1-49.3,75.8-62.8,102.6-62.8s41.8,4.2,63.8,4.2c57.8,0,88-32.5,105.5-45.8l-2,6.6
							c0,0-28.3,40.9-69,57.4s-64.4,6.4-75.7,4.3s-34.3-2.7-49.5,7.5S42.9,457,36.3,470.3c-6.3,12.5-8.7,39.8,8.3,61.1
							C55.4,552.2,69,587.9,69,587.9l-43-11C26,576.9-8.5,525.4-8.5,462.9z"/>
						<g>
							<path class="st11" d="M288,249.7c-2.7,1.3-8,3.3-8,3.3l1.6-18l10.5-6.2l6-0.3l-1.3,12.6l-2.5,5.6l-4.7,3.2L288,249.7z"/>
							<path class="st8" d="M290.4,248.2c5-7.1,6.2-12.3,4.6-17.9c-3.8,2.1-3,5.1-3,5.1c-1.6,0.7-4.6,2.3-5.3,5.8
								c0.1,6.1,2.7,18.6-8.6,39.7c2.8-10.8-0.2-20.7-4.9-27.7c-6.7-6.2-35.1-43.8-21-54.8s10.6-17.1,27.1-8s26.8,23.4,25.3,41.9
								S293.2,251.1,290.4,248.2z"/>
						</g>
					</g>
				</g>
			</g>
			<g>
				<path class="st8" d="M157.6,102.2c0-23.2-17.1-38.1-35.5-38.1S94.3,77.8,94.3,83.9c-8.4,0-13.7,2.2-17.6,4.7
					c0.1-14.2,14.6-49,52.9-49c36.5,0,57.3,27.9,57.3,60.4s-17.2,39.2-25.1,39.2c-0.9-5.7-4.1-12.6-9.6-19.1
					C155,115.8,157.6,109.9,157.6,102.2z"/>
				<path class="st8" d="M230.8,162.1c0,25.3-18.1,34-29.1,34c-12.1,0-17.5-7.5-18.7-15.7c-0.4-2.4,2.4-4,4.3-2.5
					c2.5,2,5.5,3.1,8.8,3.1c6.1,0,15.6-4.3,15.6-18.3c0-16.8-17.8-24.3-24.1-24.7c6.2-8,9.5-17.4,10.1-23.6
					C214.3,120.3,230.8,138.6,230.8,162.1z"/>
				<path class="st8" d="M99.3,527.4c11.9,2.3,22.7,0.6,31.1-5.9c-3.3,5.8-5.2,12.6-5.2,27.2c0,2.3,0.1,4.5,0.2,6.6
					C109,551,100.9,544.8,99.3,527.4z"/>
				<path class="st8" d="M107,431.8c-22.8,0-41.3,19.9-39.6,42.6c2.5-1.3,10.2-2.4,20.1-1.1c-0.4-8,7-16.5,17.3-16.5
					c8.1,0,18.6,6.5,18.6,20.3c0,11.1-6.7,22-17.8,21.9c-2.7,6.4-5,12-5.9,16c1.4,0.6,3.5,1.1,6.6,1.1c21.3,0,43-16.8,43-42.9
					C149.3,447.2,129.5,431.8,107,431.8z"/>
			</g>
			<g>
				<g>
					<path class="st1" d="M139.8,149.7c2.9,1.2,7.4,3.8,18.4,3.8c8.8,0,16.1-3.2,21.9-7.9c-4.2,7.7-7.5,17.5-7.5,27.7
						c0,51.8,40.5,88.5,88.3,91.3c-4.3,23.4-23.2,37.8-45.6,37.8c-34.6,0-82-46.8-82-112.4C133.3,171.8,136.3,161.2,139.8,149.7z"/>
					<g>
						<defs>
							<path id="SVGID_35_" d="M139.8,149.7c2.9,1.2,7.4,3.8,18.4,3.8c8.8,0,16.1-3.2,21.9-7.9c-4.2,7.7-7.5,17.5-7.5,27.7
								c0,51.8,40.5,88.5,88.3,91.3c-4.3,23.4-23.2,37.8-45.6,37.8c-34.6,0-82-46.8-82-112.4C133.3,171.8,136.3,161.2,139.8,149.7z"
								/>
						</defs>
						<clipPath id="SVGID_36_">
							<use xlink:href="#SVGID_35_"  style="overflow:visible;"/>
						</clipPath>
						<path class="st34" d="M151.6,186.4c0,62.6,50.5,102.4,94.7,104.6c-1.7,8.8-14.3,23.4-52.6,11.4S122,249.5,122,196.1
							s18.3-53.6,18.3-53.6l19.9,7.4C157,156.5,151.6,171,151.6,186.4z"/>
					</g>
				</g>
				<g>
					<path class="st1" d="M82.2,488.9c4.4,0,8.5,2.9,12.3,6.3c-3.9,8.3-7.1,15.5-7.1,24.7c0,24.9,13.7,45.3,39.7,48.6
						c3.3,17.2,10.3,30.4,16,38.6c-17.9-1.6-85.2-16.5-85.2-80.4C58,502.3,75.3,488.9,82.2,488.9z"/>
					<g>
						<defs>
							<path id="SVGID_37_" d="M82.2,488.9c4.4,0,8.5,2.9,12.3,6.3c-3.9,8.3-7.1,15.5-7.1,24.7c0,24.9,13.7,45.3,39.7,48.6
								c3.3,17.2,10.3,30.4,16,38.6c-17.9-1.6-85.2-16.5-85.2-80.4C58,502.3,75.3,488.9,82.2,488.9z"/>
						</defs>
						<clipPath id="SVGID_38_">
							<use xlink:href="#SVGID_37_"  style="overflow:visible;"/>
						</clipPath>
						<path class="st35" d="M68.3,517.7c0,39.1,35.2,63.4,62.4,64.3c17.8,6.2,22.4,24.4,16.1,32.7S112.3,630,112.3,630
							s-31.1-26.4-41.4-46.3S53.8,545.3,56,529.4S59.4,507,66.1,494s16-10.3,16-5.1C75,493.5,68.3,500.7,68.3,517.7z"/>
					</g>
				</g>
			</g>
		</g>
		<g>
			<defs>
				<path id="SVGID_39_" d="M630.7,383.7c-42.8-27.5-81.1-19-116.2-21.2c-49.1-3-90-26.3-103.7-48.1c15.7,18.4,42.5,24.6,59.9,27.6
					s22.9,7.8,59.7,7.8c60.6,0,133.1-60.7,133.1-150.3c0-59.7-40-101.1-82.5-101.1c-22.3,0-38.7,10.2-48.3,21.6
					c-5.4,6.5-8.7,13.4-9.6,19.1h2.9h5.9c3.7,0,7.3-1.1,10.3-3.3c5.9-4.3,16.5-10.7,30.1-10.7c28.7,0,51.6,25.7,51.6,58.1
					c0,83.3-109.5,132.7-153.5,132.7c-39.1,0-60.2-31.1-60.2-59.1c0-4-0.2-9.6,1.2-13.5c9.1-2.8,13.8-10.8,13.8-22.1
					c0-12.6-8.1-18.8-5.8-27.5c-26.3,3.8-34.9,24.2-34.9,36.8s6.4,15.3,12.5,19.2c-0.3,1.8-4.5,6.1-11.1,6.1c-8.4,0-13-7-13-16.7
					c0-25.2,18.1-58,43.8-58c4.6,0,7.6,0.7,10.3,2.7c-3.8-14,18.8-29.7,18.8-76.1C445.8,53.8,405.8,0,342.5,0
					S239.3,53.8,239.3,107.7c0,46.4,22.6,62.1,18.8,76.1c2.6-2,5.7-2.7,10.3-2.7c25.7,0,43.8,32.9,43.8,58c0,9.6-4.6,16.7-13,16.7
					c-6.6,0-10.8-4.3-11.1-6.1c6.1-4,12.5-6.7,12.5-19.2s-8.6-33-34.9-36.8c2.4,8.7-5.8,14.9-5.8,27.5c0,11.4,4.7,19.3,13.8,22.1
					c1.4,3.9,1.2,9.5,1.2,13.5c0,27.9-21.2,59.1-60.2,59.1c-43.9,0-153.5-49.4-153.5-132.7c0-32.4,22.9-58.1,51.6-58.1
					c13.5,0,24.2,6.4,30.1,10.7c3,2.2,6.6,3.3,10.3,3.3h5.9h2.9c-0.9-5.7-4.1-12.6-9.6-19.1c-9.6-11.4-26-21.6-48.3-21.6
					c-42.5,0-82.5,41.4-82.5,101.1c0,89.6,72.5,150.3,133.1,150.3c36.8,0,42.3-4.8,59.7-7.8s44.3-9.2,59.9-27.6
					c-13.7,21.8-54.5,45.1-103.7,48.1c-35.1,2.2-73.4-6.3-116.2,21.2C14.3,409.3,0,445.7,0,472.3c0,66,40.4,93.3,59.6,101.2
					c-5.5-7.3-15.1-23.4-15.1-44.3c0-15.8,4.7-23.6,8.6-28.6c-7.8-9.7-14.2-21-16.9-30.2c0-15.8,27.4-52.4,76.9-52.4
					c25.6,0,25.3,4.6,53.1,4.6c48.9,0,70.6-26.8,103.5-61.8c18.3-19.5,25.8-31.4,31-43.5c-8,23.3-22.6,66.2-60.6,92.2
					c-29.4,20.1-68.9,43.7-92.1,105.4c-5.4,12.3-8.6,24.5-8.6,36.1c0,35.9,27.3,93,96.3,93c52.8,0,96.9-37.6,106.8-88
					c9.8,50.5,54,88,106.8,88c69,0,96.3-57.1,96.3-93c0-11.5-3.2-23.7-8.6-36.1c-23.2-61.7-62.7-85.2-92.1-105.4
					c-38-26-52.6-68.8-60.6-92.2c5.2,12.1,12.7,24,31,43.5c32.9,35,54.6,61.8,103.5,61.8c27.9,0,27.5-4.6,53.1-4.6
					c49.5,0,76.9,36.6,76.9,52.4c-2.7,9.3-9.1,20.5-16.9,30.2c3.9,5.1,8.6,12.9,8.6,28.6c0,20.9-9.6,37-15.1,44.3
					c19.2-7.9,59.6-35.2,59.6-101.2C685,445.7,670.7,409.3,630.7,383.7z M276.1,219.7c0-5.7,3.4-8.8,5.9-8.8s3.5,2.6,3.5,5.3v0.8
					c0,1.4-0.4,2.7-0.9,4c-0.1,0.3-0.3,0.7-0.3,1c0,4.7,4.2,7.8,9.1,7.9c1.6,0,2.9,1.3,3.1,2.9c0.2,1.8-1,3.4-2.8,3.6
					c-0.8,0.1-1.7,0.1-2.8,0.1C280.8,236.4,276.1,228,276.1,219.7z M436.1,466c23.5,8.6,63.7,35.5,63.7,74.8c0,40-28,60.8-55.1,60.8
					c-51.1,0-75.6-52.1-75.6-95.1c0-11.9,0-40.6,0-61.8c2.3,2.8,4.8,5.8,8.6,9.7c3.1,14.4,1.9,22.5,5.9,58.6
					c5,44.9,25.3,73.5,60.6,73.5c29.9,0,40.8-24.6,40.8-45c0-22.6-15-39.7-34.3-51.8c-16.1-10-32.3-13.8-49.2-24.2
					c-29.8-18.3-50.1-41.9-58.9-65.7c-8.8,23.8-29.1,47.3-58.9,65.7c-16.9,10.4-33.1,14.1-49.2,24.2c-19.3,12.1-34.3,29.2-34.3,51.8
					c0,20.4,10.9,45,40.8,45c35.3,0,55.6-28.6,60.6-73.5c4-36.1,2.8-44.3,5.9-58.6c3.8-3.9,6.3-6.9,8.6-9.7c0,21.2,0,49.9,0,61.8
					c0,43-24.4,95.1-75.6,95.1c-27.1,0-55.1-20.8-55.1-60.8c0-39.3,40.2-66.2,63.7-74.8c23.5-8.6,37.5-16.1,55.8-34.4
					c18.3-18.3,35-45.2,37.8-94.3c2.8,49.1,19.6,75.9,37.8,94.3C398.6,449.9,412.6,457.4,436.1,466z M423.3,516.7
					c-11.4,0-20.2,6.5-23,15c-1.6-4.7-2.5-10.1-3-15.2c3.6-5.5,11.4-13.6,28-13.6c22.8,0,43.8,19.4,43.8,41.9
					c0,11.7-6.1,28.3-26.7,28.3c-15.4,0-32.4-8.7-32.4-26.5c0-6.9,5.5-14.9,13.4-14.9c2.5,0,3.9,1,3.9,1c1.1,3,1.2,8.1,6.5,8.1
					s8-4.9,8-9.5C441.8,524.6,434.6,516.7,423.3,516.7z M251.3,540.9c5.3,0,5.4-5.2,6.5-8.1c0,0,1.4-1,3.9-1c7.9,0,13.4,8,13.4,14.9
					c0,17.8-17,26.5-32.4,26.5c-20.6,0-26.7-16.7-26.7-28.3c0-22.5,21-41.9,43.8-41.9c16.6,0,24.4,8.1,28,13.6
					c-0.5,5.1-1.4,10.5-3,15.2c-2.9-8.5-11.7-15-23-15s-18.5,8-18.5,14.8C243.2,536,245.9,540.9,251.3,540.9z M394.2,236.4
					c-1.1,0-2.1-0.1-2.8-0.1c-1.8-0.2-3.1-1.9-2.8-3.6c0.2-1.6,1.5-2.8,3.1-2.9c4.9-0.1,9.1-3.2,9.1-7.9c0-0.3-0.1-0.6-0.3-1
					c-0.6-1.3-0.9-2.6-0.9-4v-0.8c0-2.6,1-5.3,3.5-5.3s5.9,3.1,5.9,8.8C408.9,228,404.2,236.4,394.2,236.4z"/>
			</defs>
			<clipPath id="SVGID_40_">
				<use xlink:href="#SVGID_39_"  style="overflow:visible;"/>
			</clipPath>
			<g class="st36">
				<g>
					<path class="st8" d="M507.5,473.6c10.3,17.5,20.6,35.9,20.6,57.9c0,42.6-26.8,89-80.6,89c-19.8,0-33.6-6.7-46.4-16.4
						c-15.4-11.7-32.1-28.1-32.1-97.7c0-16,0-61.8,0-61.8c2.3,2.8,4.8,5.8,8.6,9.7c3.1,14.4,1.9,22.5,5.9,58.6
						c5,44.9,25.3,73.5,60.6,73.5c29.9,0,40.8-24.6,40.8-45c0-22.6-15-39.7-34.3-51.8c-16.1-10-32.3-13.8-49.2-24.2
						c-29.8-18.3-50.1-41.9-58.9-65.7c-8.8,23.8-29.1,47.3-58.9,65.7c-16.9,10.4-33.1,14.1-49.2,24.2
						c-19.3,12.1-34.3,29.2-34.3,51.8c0,20.4,10.9,45,40.8,45c35.3,0,55.6-28.6,60.6-73.5c4-36.1,2.8-44.3,5.9-58.6
						c3.8-3.9,6.3-6.9,8.6-9.7c0,0,0,45.8,0,61.8c0,69.7-16.7,86.1-32.1,97.7c-12.8,9.7-26.6,16.4-46.4,16.4
						c-53.9,0-80.6-46.4-80.6-89c0-22,10.3-40.5,20.6-57.9c0,0-9.2,6.7-18.5,16.9c-3.9,7.4-7.6,15.5-11,24.4
						c-5.4,12.3-8.6,24.5-8.6,36.1c0,35.9,27.3,93,96.3,93c52.8,0,96.9-37.6,106.8-88c9.8,50.5,54,88,106.8,88
						c69,0,96.3-57.1,96.3-93c0-11.5-3.2-23.7-8.6-36.1c-3.3-8.9-7-17-11-24.4C516.7,480.4,507.5,473.6,507.5,473.6z M425.2,502.9
						c22.8,0,43.8,19.4,43.8,41.9c0,11.7-6.1,28.3-26.7,28.3c-15.4,0-32.4-8.7-32.4-26.5c0-6.9,5.5-14.9,13.4-14.9
						c2.5,0,3.9,1,3.9,1c1.1,3,1.2,8.1,6.5,8.1s8-4.9,8-9.5c0-6.8-7.2-14.8-18.5-14.8s-20.2,6.5-23,15c-1.6-4.7-2.5-10.1-3-15.2
						C400.8,511,408.6,502.9,425.2,502.9z M284.8,531.7c-2.9-8.5-11.7-15-23-15s-18.5,8-18.5,14.8c0,4.6,2.7,9.5,8,9.5
						s5.4-5.2,6.5-8.1c0,0,1.4-1,3.9-1c7.9,0,13.4,8,13.4,14.9c0,17.8-17,26.5-32.4,26.5c-20.6,0-26.7-16.7-26.7-28.3
						c0-22.5,21-41.9,43.8-41.9c16.6,0,24.4,8.1,28,13.6C287.3,521.6,286.4,527,284.8,531.7z"/>
					<path class="st8" d="M248.9,466c23.5-8.6,37.5-16.1,55.8-34.4c18.3-18.3,35-45.2,37.8-94.3c2.8,49.1,19.6,75.9,37.8,94.3
						c18.3,18.3,32.3,25.8,55.8,34.4c23.5,8.6,63.7,35.5,63.7,74.8c0,1.7-0.1,3.3-0.2,5c0,0,0,0,0,0.1
						c9.7-62.8-51.8-84.5-94.8-118.4c-25.5-20.1-53.1-50.9-62.3-103.4c-9.2,52.5-36.8,83.3-62.3,103.4
						c-43.1,33.9-104.6,55.6-94.8,118.4c0,0,0,0,0-0.1c-0.1-1.6-0.2-3.3-0.2-5C185.3,501.5,225.4,474.6,248.9,466z"/>
				</g>
				<path class="st28" d="M408.7,102.8c0,32.8-11.3,59.2-32.5,74.2c12-4.3,19.4-6.1,33.6-6.1l15.4-1.9c0,0,18.3-35.3,12.6-79.3
					S401,18.2,401,18.2h-30l1.2,17.3C383.6,41.5,408.7,67.6,408.7,102.8z"/>
				<path class="st29" d="M348.7,30.7c26.5,0,63.5,20.2,70.7,71.2c0.2-19.5-4.4-41-10.2-53.7C400.2,28.8,373,11,373,11
					s-12-4.7-29.5-4.7s-60,23.2-69.3,43.9C265,71,263.8,82.3,263.8,95c0,28.5,6.4,44.4,15,56.9c-3-11.3-5.3-23.9-5.3-35.6
					C273.6,66.5,315.3,30.7,348.7,30.7z"/>
				<path class="st30" d="M429.2,7.7L342.5-9.8L255.8,7.7l-31,85.7l17,90.5H258c2.1-6.3,8.8-12.9,17.3-12.9
					c-9.6-12.8-19.8-35.8-19.8-65.8c0-47.7,40-91,87-91s87,43.3,87,91c0,30-10.1,53-19.8,65.8c8.5,0,15.2,6.6,17.3,12.9h16.2
					l17-90.5L429.2,7.7z"/>
			</g>
		</g>
	</g>
</g>
</svg>
